/* XPM */
static char * balzac_xpm[] = {
"20 20 349 2",
"  	c #505050",
". 	c #535353",
"+ 	c #707474",
"@ 	c #515050",
"# 	c #8F7873",
"$ 	c #B79189",
"% 	c #B2857D",
"& 	c #BE9B8A",
"* 	c #BEA292",
"= 	c #98867A",
"- 	c #727D7C",
"; 	c #9AB3B1",
"> 	c #A49E9C",
", 	c #D4B09F",
"' 	c #E9C6AC",
") 	c #E6BEA6",
"! 	c #F4D9BC",
"~ 	c #F3D3B4",
"{ 	c #EFCDB1",
"] 	c #F0D4BA",
"^ 	c #ADD4C7",
"/ 	c #909590",
"( 	c #525252",
"_ 	c #768D8B",
": 	c #ABCBC7",
"< 	c #DBB9AA",
"[ 	c #F1D4B8",
"} 	c #ECCAAE",
"| 	c #EDCBAF",
"1 	c #F4D9BB",
"2 	c #F1D3B4",
"3 	c #EECEB1",
"4 	c #F5DEC4",
"5 	c #CDE0D1",
"6 	c #BEE0D8",
"7 	c #A99B94",
"8 	c #7BC2BE",
"9 	c #CFC8BA",
"0 	c #E9CDB2",
"a 	c #EED5B9",
"b 	c #F3D5B8",
"c 	c #EED1B3",
"d 	c #F5DCBC",
"e 	c #F0D0B2",
"f 	c #F0D2B3",
"g 	c #F4DDC2",
"h 	c #E5D2C2",
"i 	c #BADED6",
"j 	c #D0D5CE",
"k 	c #92847D",
"l 	c #848D8C",
"m 	c #BBD8D8",
"n 	c #D8B9AC",
"o 	c #ECCEB6",
"p 	c #F0D3B6",
"q 	c #F4D8BB",
"r 	c #F6E0C2",
"s 	c #F1D4B5",
"t 	c #EDCDAE",
"u 	c #F6E0C1",
"v 	c #F6DFC3",
"w 	c #F7E8D3",
"x 	c #E1E6E0",
"y 	c #9FDDD4",
"z 	c #CBC4B3",
"A 	c #6A6664",
"B 	c #9FACAF",
"C 	c #BCA6A7",
"D 	c #E1C2B3",
"E 	c #FAE9D6",
"F 	c #F7E0C9",
"G 	c #F1D1B5",
"H 	c #F4DABD",
"I 	c #F6DFC2",
"J 	c #FBEBD1",
"K 	c #FCECD8",
"L 	c #F5E4D2",
"M 	c #E8DFD3",
"N 	c #C9E3DE",
"O 	c #B1D9CA",
"P 	c #B9A596",
"Q 	c #575859",
"R 	c #ABA6B3",
"S 	c #D3A49E",
"T 	c #DCB7AE",
"U 	c #FAF2E4",
"V 	c #F3E0D1",
"W 	c #FBEEDA",
"X 	c #F7E7D1",
"Y 	c #FBEEDB",
"Z 	c #FAEBD8",
"` 	c #FAECDA",
" .	c #FBEDDB",
"..	c #EBD9C8",
"+.	c #F4E3D4",
"@.	c #CDC4C5",
"#.	c #BFE8DF",
"$.	c #DFC9B2",
"%.	c #6D6864",
"&.	c #6C6D75",
"*.	c #C9A5A5",
"=.	c #D1A49B",
"-.	c #D09B96",
";.	c #E5CBC0",
">.	c #EACEC8",
",.	c #FBF2E7",
"'.	c #F4EBE0",
").	c #FCF4EA",
"!.	c #FCF1E3",
"~.	c #F8EDDE",
"{.	c #F4E8D8",
"].	c #E2C4BA",
"^.	c #EED0C0",
"/.	c #CAA6A4",
"(.	c #E1EDED",
"_.	c #D6C4B0",
":.	c #B5A090",
"<.	c #756A6D",
"[.	c #DDB4A6",
"}.	c #D1A799",
"|.	c #C6918A",
"1.	c #C48E8A",
"2.	c #D59F9A",
"3.	c #EEDFD7",
"4.	c #EAD5CC",
"5.	c #FAF2EC",
"6.	c #FBF6EF",
"7.	c #EDDED6",
"8.	c #E8CEC1",
"9.	c #DDAFA0",
"0.	c #D8AB9A",
"a.	c #DFB5A0",
"b.	c #CDD0DD",
"c.	c #D0AFA6",
"d.	c #E0C4AE",
"e.	c #5B5956",
"f.	c #846B6A",
"g.	c #E7C3AC",
"h.	c #CCA894",
"i.	c #CFA294",
"j.	c #C39187",
"k.	c #CA918A",
"l.	c #D6A397",
"m.	c #D2A095",
"n.	c #D8AE9E",
"o.	c #DDAFA5",
"p.	c #D3A096",
"q.	c #CB9488",
"r.	c #D39A8C",
"s.	c #D6AA92",
"t.	c #E8C4A5",
"u.	c #B4A9BB",
"v.	c #D3B2A1",
"w.	c #E1C3AD",
"x.	c #B3A495",
"y.	c #9A7A7A",
"z.	c #EBC9B2",
"A.	c #D0AA98",
"B.	c #C6A291",
"C.	c #C49C8D",
"D.	c #CB9C90",
"E.	c #DBA998",
"F.	c #C99087",
"G.	c #C9968A",
"H.	c #CC9C8E",
"I.	c #D8A897",
"J.	c #D09E8E",
"K.	c #CD998A",
"L.	c #D3AB94",
"M.	c #E8C2A4",
"N.	c #BBA4A0",
"O.	c #D9B3A1",
"P.	c #F3DFC7",
"Q.	c #D4AFA3",
"R.	c #A28181",
"S.	c #E9C9B2",
"T.	c #D4B19F",
"U.	c #D5B0A5",
"V.	c #D4B1A0",
"W.	c #D5AD9C",
"X.	c #EAC7B0",
"Y.	c #E0B9A8",
"Z.	c #DDB9A9",
"`.	c #DDB6A6",
" +	c #F4D7C2",
".+	c #D1AC99",
"++	c #CFA592",
"@+	c #D8B29A",
"#+	c #E0B79D",
"$+	c #C39E89",
"%+	c #F1D6BE",
"&+	c #EBD1BF",
"*+	c #D9AFA6",
"=+	c #9B7D7C",
"-+	c #E2C2AF",
";+	c #D9BEAD",
">+	c #908383",
",+	c #9B8F93",
"'+	c #DEC3B5",
")+	c #EDD2C2",
"!+	c #F2DACA",
"~+	c #ECD7CB",
"{+	c #E2C1B3",
"]+	c #C0A99D",
"^+	c #C9A899",
"/+	c #D8AB9E",
"(+	c #E6C6AF",
"_+	c #DFB29B",
":+	c #C59A85",
"<+	c #F4DBC7",
"[+	c #E5C1B2",
"}+	c #DFB3A7",
"|+	c #917777",
"1+	c #D0AEA5",
"2+	c #F1DACC",
"3+	c #E9D1CD",
"4+	c #6984A1",
"5+	c #B2B0B5",
"6+	c #EAD6CA",
"7+	c #F7E8DB",
"8+	c #F9F1E7",
"9+	c #D4C6C1",
"0+	c #8F94A0",
"a+	c #394A6C",
"b+	c #AA918A",
"c+	c #F4D9C2",
"d+	c #DCAF99",
"e+	c #CC9A8B",
"f+	c #EFCEBD",
"g+	c #D6A49A",
"h+	c #E6BFB0",
"i+	c #907B7E",
"j+	c #AF8E8C",
"k+	c #ECD8CA",
"l+	c #EECFC0",
"m+	c #D8D3CE",
"n+	c #E8E7E2",
"o+	c #FAF4EB",
"p+	c #F5EBE1",
"q+	c #FAEFE5",
"r+	c #FAEBE2",
"s+	c #A4B8C1",
"t+	c #B4BAC2",
"u+	c #F0DAC9",
"v+	c #F3D7C3",
"w+	c #D1A492",
"x+	c #C58F83",
"y+	c #DBA89B",
"z+	c #D5A99D",
"A+	c #DAB2A7",
"B+	c #9D8C8F",
"C+	c #AE8A91",
"D+	c #D1A9A5",
"E+	c #E9CDC1",
"F+	c #F9E0D4",
"G+	c #FBEFE8",
"H+	c #FBF2E9",
"I+	c #FBF4EC",
"J+	c #FCF0E7",
"K+	c #FAEBE1",
"L+	c #F8DDD1",
"M+	c #F0CABC",
"N+	c #F0DCC9",
"O+	c #DBAB9B",
"P+	c #C19084",
"Q+	c #C18880",
"R+	c #D8AA9A",
"S+	c #C89D94",
"T+	c #CAABA8",
"U+	c #4A4A4C",
"V+	c #7C7979",
"W+	c #BD9394",
"X+	c #CB8687",
"Y+	c #C69C98",
"Z+	c #F8E4DB",
"`+	c #FBF1E9",
" @	c #FDF4ED",
".@	c #FDF6ED",
"+@	c #FCF2EA",
"@@	c #FBF1E8",
"#@	c #FAE8DE",
"$@	c #DABFB1",
"%@	c #8C798A",
"&@	c #A07272",
"*@	c #B07A71",
"=@	c #C38A84",
"-@	c #C6948E",
";@	c #BDA29E",
">@	c #A0CDC4",
",@	c #151F23",
"'@	c #9E8380",
")@	c #E2A9A7",
"!@	c #D99696",
"~@	c #734F50",
"{@	c #9A928F",
"]@	c #F6E8E2",
"^@	c #F4EBE3",
"/@	c #F6ECE5",
"(@	c #FAF1E8",
"_@	c #F9EDE5",
":@	c #CABAB3",
"<@	c #7B7595",
"[@	c #A3A3BD",
"}@	c #272529",
"|@	c #7D5C5A",
"1@	c #886B68",
"2@	c #9A9A96",
"3@	c #B4D6CE",
"4@	c #C2EAE8",
"5@	c #111B1E",
"6@	c #BC9994",
"7@	c #F6E1DA",
"8@	c #E4CFCA",
"9@	c #131719",
"0@	c #282D3D",
"a@	c #938EA5",
"b@	c #E6D8D3",
"c@	c #F8E6DD",
"d@	c #E5CBC3",
"e@	c #B48B85",
"f@	c #747083",
"g@	c #E1E1E9",
"h@	c #BBB9C6",
"i@	c #2A2929",
"j@	c #A08F8B",
"k@	c #EFDBD3",
"l@	c #BAC9C1",
"m@	c #D1ECEC",
"n@	c #ABE4E2",
"o@	c #161F24",
"p@	c #C0A7A2",
"q@	c #FBEFE9",
"r@	c #DCD6D2",
"s@	c #575F69",
"t@	c #54597E",
"u@	c #636794",
"v@	c #6D6F94",
"w@	c #716269",
"x@	c #71575C",
"y@	c #555878",
"z@	c #D5D7E2",
"A@	c #F0F1F6",
"B@	c #B6B8CB",
"C@	c #373434",
"D@	c #B1A59F",
"E@	c #F9F1EA",
"F@	c #F8EAE2",
"G@	c #C1D6D2",
"H@	c #7FB9A9",
"        . + @ # $ % & * = -             ",
"        ; > , ' ) ! ~ { ] ^ / (         ",
"      _ : < [ } | 1 2 3 4 5 6 7         ",
"    ( 8 9 0 a b c d e f g h i j k       ",
"    l m n o p q r s t u v w x y z A     ",
"    B C D E F 1 G H I J K L M N O P     ",
"  Q R S T U V W X Y Z `  ...+.@.#.$.%.  ",
"  &.*.=.-.;.>.,.'.).!.~.{.].^./.(._.:.  ",
"  <.[.}.|.1.2.3.4.5.6.7.8.9.0.a.b.c.d.e.",
"  f.g.h.i.j.k.l.m.n.o.p.q.r.s.t.u.v.w.x.",
"  y.z.A.B.C.D.E.F.G.H.I.J.K.L.M.N.O.P.Q.",
"  R.S.T.U.V.W.X.Y.Z.`. +.+++@+#+$+%+&+*+",
"  =+-+;+>+,+'+)+!+~+{+]+^+/+(+_+:+<+[+}+",
"  |+1+2+3+4+5+6+7+8+9+0+a+b+c+d+e+f+g+h+",
"  i+j+k+l+m+n+o+p+q+r+s+t+u+v+w+x+y+z+A+",
"  B+C+D+E+F+G+H+I+J+K+L+M+N+O+P+Q+R+S+T+",
"U+V+W+X+Y+Z+`+ @.@+@@@#@$@%@&@*@=@-@;@>@",
",@'@)@!@~@{@]@^@/@(@_@:@<@[@}@|@1@2@3@4@",
"5@6@7@8@9@0@a@b@c@d@e@f@g@h@i@j@k@l@m@n@",
"o@p@q@r@s@t@u@v@w@x@y@z@A@B@C@D@E@F@G@H@"};
