/* XPM */
static char * hinata_xpm[] = {
"20 20 299 2",
"  	c None",
". 	c #ECDC9B",
"+ 	c #F1DFAB",
"@ 	c #FAE8C9",
"# 	c #F8E4AC",
"$ 	c #F5E3B5",
"% 	c #EFDD9F",
"& 	c #E1D395",
"* 	c #E9D99D",
"= 	c #F4E39A",
"- 	c #F6E49B",
"; 	c #F8E5AF",
"> 	c #F4E2A5",
", 	c #F7E49E",
"' 	c #F6E5A2",
") 	c #F9E7C6",
"! 	c #F4E1A2",
"~ 	c #F1DECC",
"{ 	c #E4D599",
"] 	c #E7D89B",
"^ 	c #EEDE9C",
"/ 	c #F6E49D",
"( 	c #F4E19B",
"_ 	c #F3E19D",
": 	c #F3E19C",
"< 	c #F7E4A0",
"[ 	c #F8E6B7",
"} 	c #F1E3D8",
"| 	c #F6DBE4",
"1 	c #D9BAC4",
"2 	c #DACF96",
"3 	c #EEDF9D",
"4 	c #E7D697",
"5 	c #EBDA97",
"6 	c #F0DE9A",
"7 	c #F7E4A4",
"8 	c #E9D99A",
"9 	c #EBD999",
"0 	c #F8E6BC",
"a 	c #FAE6D8",
"b 	c #F8E7EF",
"c 	c #EAC9D4",
"d 	c #EFA8B6",
"e 	c #CB9C99",
"f 	c #C2B88E",
"g 	c #DED09D",
"h 	c #F4E3AB",
"i 	c #EFDEA0",
"j 	c #F6E4A1",
"k 	c #E3D295",
"l 	c #FAE5BD",
"m 	c #F1E0AC",
"n 	c #E8DBB9",
"o 	c #EADDDB",
"p 	c #FBE3EC",
"q 	c #F8D0DB",
"r 	c #E4A8B2",
"s 	c #F3B1B5",
"t 	c #E2B4A0",
"u 	c #CAB6A4",
"v 	c #F9E9CE",
"w 	c #E3D19B",
"x 	c #FAEAC6",
"y 	c #F6E4A8",
"z 	c #D9CA9E",
"A 	c #F9E9D8",
"B 	c #FBEAE5",
"C 	c #E9D4D8",
"D 	c #D4B9BF",
"E 	c #F5C1C8",
"F 	c #F5B8BE",
"G 	c #F5B4B5",
"H 	c #E6B3A5",
"I 	c #E7BA9D",
"J 	c #D3B88D",
"K 	c #DDC9C8",
"L 	c #E8DCDE",
"M 	c #F1E5D9",
"N 	c #F9EDED",
"O 	c #FBE6DB",
"P 	c #E9DADB",
"Q 	c #E9D2D5",
"R 	c #F9D9E0",
"S 	c #E7AFB6",
"T 	c #E7ADA9",
"U 	c #E3AAA1",
"V 	c #F6B6B1",
"W 	c #F8BFA9",
"X 	c #E6BB9B",
"Y 	c #E9BD9A",
"Z 	c #DCC295",
"` 	c #A39188",
" .	c #E7C7BF",
"..	c #D1BFC3",
"+.	c #F9CCD3",
"@.	c #E5C5CE",
"#.	c #F4BEC3",
"$.	c #E8B2B6",
"%.	c #EBB0B1",
"&.	c #F6BFBA",
"*.	c #EEB9A9",
"=.	c #DEB19B",
"-.	c #E1B499",
";.	c #F0BBA0",
">.	c #F5C9A1",
",.	c #E4C297",
"'.	c #F1D99E",
").	c #E6D599",
"!.	c #C4ADA8",
"~.	c #EBBFB5",
"{.	c #DFBAB5",
"].	c #EAABA9",
"^.	c #E4ADAD",
"/.	c #F5B7AC",
"(.	c #E2B1A5",
"_.	c #D1A397",
":.	c #E3B598",
"<.	c #F2CDA2",
"[.	c #D0B488",
"}.	c #ECD4A1",
"|.	c #E6CA96",
"1.	c #F7DCA0",
"2.	c #D5C18A",
"3.	c #F6E39E",
"4.	c #E5D494",
"5.	c #BCA28A",
"6.	c #E7BDA2",
"7.	c #E1BA9A",
"8.	c #E0B89A",
"9.	c #DBBBA1",
"0.	c #DFC4B3",
"a.	c #E9D1C0",
"b.	c #EDD5C6",
"c.	c #8D8784",
"d.	c #BAB1AC",
"e.	c #A99E8A",
"f.	c #DDCE96",
"g.	c #ECDB9C",
"h.	c #F6E39C",
"i.	c #D9C68E",
"j.	c #F1DF9A",
"k.	c #ECDA9F",
"l.	c #C1AE88",
"m.	c #CAB091",
"n.	c #F6E3A0",
"o.	c #ADA191",
"p.	c #796E69",
"q.	c #D7CDC6",
"r.	c #FCEADB",
"s.	c #FBE5D3",
"t.	c #B0B2B2",
"u.	c #9497A5",
"v.	c #F6F2ED",
"w.	c #C6B68E",
"x.	c #E9D695",
"y.	c #DCC78C",
"z.	c #E2CF8F",
"A.	c #E5CEAF",
"B.	c #AB917E",
"C.	c #C8B58C",
"D.	c #DBAD9A",
"E.	c #B9AA88",
"F.	c #BCAFA5",
"G.	c #AEB3B4",
"H.	c #C4C0C5",
"I.	c #EEE0D2",
"J.	c #FDE9D7",
"K.	c #F1E5DB",
"L.	c #D3CACA",
"M.	c #FCEBDD",
"N.	c #DCCCA6",
"O.	c #EDDD9C",
"P.	c #E2CE90",
"Q.	c #D3B97D",
"R.	c #DBBE85",
"S.	c #D9AB9E",
"T.	c #AD8481",
"U.	c #BEA786",
"V.	c #EBBEA0",
"W.	c #B98E89",
"X.	c #AC9C98",
"Y.	c #DAD5D6",
"Z.	c #D9D0D2",
"`.	c #EBDACA",
" +	c #FDE8D6",
".+	c #FDF1E5",
"++	c #FBE1D6",
"@+	c #FCDBCB",
"#+	c #E3D3A5",
"$+	c #EAD99A",
"%+	c #E0CB8E",
"&+	c #C1A270",
"*+	c #D1A683",
"=+	c #CC908A",
"-+	c #AC7278",
";+	c #BCAB88",
">+	c #E2C295",
",+	c #D2A798",
"'+	c #E1C2B6",
")+	c #FBE0D1",
"!+	c #FCEADC",
"~+	c #E4CAB7",
"{+	c #FDE4D0",
"]+	c #FBD9C9",
"^+	c #FCE0CE",
"/+	c #E0D0A0",
"(+	c #E2D190",
"_+	c #DFC78D",
":+	c #B08764",
"<+	c #C18774",
"[+	c #C77C81",
"}+	c #B5747F",
"|+	c #E3D195",
"1+	c #C5A186",
"2+	c #D3AA99",
"3+	c #FCDDCF",
"4+	c #FCE3D2",
"5+	c #F2E2CF",
"6+	c #FDE5CF",
"7+	c #FCE2CB",
"8+	c #FDE2CC",
"9+	c #FDE3CF",
"0+	c #E1D198",
"a+	c #E0D290",
"b+	c #E2CE92",
"c+	c #A5785C",
"d+	c #B7756C",
"e+	c #B76571",
"f+	c #A55A6B",
"g+	c #D9C38D",
"h+	c #C4B187",
"i+	c #D7A88B",
"j+	c #C9BBAE",
"k+	c #FBDEC8",
"l+	c #FCE3CD",
"m+	c #E6C8B7",
"n+	c #E3BEB2",
"o+	c #F9DAC2",
"p+	c #EDD1BD",
"q+	c #E9DA9A",
"r+	c #E8DA95",
"s+	c #E5D597",
"t+	c #A77864",
"u+	c #965457",
"v+	c #A5616E",
"w+	c #A05364",
"x+	c #C9B285",
"y+	c #DAC595",
"z+	c #CAA582",
"A+	c #49281A",
"B+	c #9E8A7D",
"C+	c #E6CDB8",
"D+	c #EDC5B2",
"E+	c #EBB2AA",
"F+	c #EDC7B2",
"G+	c #AC8E80",
"H+	c #E2D391",
"I+	c #F6E79F",
"J+	c #E4D799",
"K+	c #764D46",
"L+	c #934F56",
"M+	c #99495A",
"N+	c #924356",
"O+	c #C1AC8A",
"P+	c #D3C390",
"Q+	c #C8AC83",
"R+	c #745643",
"S+	c #6F4B2E",
"T+	c #6D4933",
"U+	c #9E8A7E",
"V+	c #A59184",
"W+	c #704E49",
"X+	c #A48467",
"Y+	c #EBDC9D",
"Z+	c #F7E59E",
"`+	c #E5D699",
" @	c #3E3C63",
".@	c #645082",
"+@	c #6F324D",
"@@	c #943A51",
"#@	c #842B41",
"$@	c #D5C5A4",
"%@	c #CEC08B",
"&@	c #C9B682",
"*@	c #9C8477",
"=@	c #75533B",
"-@	c #8C6848",
";@	c #7B5F61",
">@	c #492228",
",@	c #44141F",
"'@	c #AB9A73",
")@	c #E4D597",
"!@	c #F7E59D",
"~@	c #D2C58C",
"{@	c #475092",
"]@	c #712D5C",
"^@	c #A81D50",
"/@	c #B91D57",
"(@	c #BC205D",
"                                        ",
"              . + @ # $ % &             ",
"          * = - ; > , ' ) ! ~           ",
"        { ] ^ / ( _ : < [ } | 1         ",
"      2 3 4 5 6 7 8 9 0 a b c d e       ",
"    f g h i j k l m n o p q r s t       ",
"    u v w x y z A B C D E F G H I J     ",
"    K L M N O P Q R S T U V W X Y Z     ",
"  `  ...+.@.#.$.%.&.*.=.-.;.>.,.'.).    ",
"  !.~.{.].^./.(._.:.<.[.}.|.1.2.3.4.    ",
"  5.6.7.8.9.0.a.b.c.d.e.f.g.h.i.j.k.    ",
"  l.m.n.o.p.q.r.s.t.u.v.w.. x.y.z.A.B.  ",
"  C.D.E.F.G.H.I.J.K.L.M.N.O.P.Q.R.S.T.  ",
"  U.V.W.X.Y.Z.`. +.+++@+#+$+%+&+*+=+-+  ",
"  ;+>+,+'+)+!+~+{+J.]+^+/+(+_+:+<+[+}+  ",
"    |+1+2+3+4+5+6+7+8+9+0+a+b+c+d+e+f+  ",
"    g+h+i+j+k+l+m+n+o+p+q+r+s+t+u+v+w+  ",
"    x+y+z+A+B+C+D+E+F+G+H+I+J+K+L+M+N+  ",
"    O+P+Q+R+S+T+U+V+W+X+Y+Z+`+ @.@+@@@#@",
"    $@%@&@*@=@-@;@>@,@'@)@!@~@{@]@^@/@(@"};
