/* XPM */
static char * kanna_xpm[] = {
"20 20 362 2",
"  	c None",
". 	c #E7EDF8",
"+ 	c #EDF1FE",
"@ 	c #E3E7F0",
"# 	c #EBF0FC",
"$ 	c #E6E9F3",
"% 	c #DCDDEA",
"& 	c #DEE0E9",
"* 	c #E1E6ED",
"= 	c #ECF2FE",
"- 	c #ECF1FE",
"; 	c #DADDE3",
"> 	c #EAEFFB",
", 	c #EDF2FE",
"' 	c #B7BBC7",
") 	c #E5EAF6",
"! 	c #EDF2FF",
"~ 	c #ECF0FB",
"{ 	c #E6E9F2",
"] 	c #EEF1FD",
"^ 	c #DEDFEB",
"/ 	c #EDF1FD",
"( 	c #D7CBCB",
"_ 	c #E8E9F2",
": 	c #E2E2E9",
"< 	c #EEF2FE",
"[ 	c #E7E8F1",
"} 	c #E4E4EB",
"| 	c #ECF1FD",
"1 	c #E8EBF5",
"2 	c #E8ECF6",
"3 	c #EBEFFA",
"4 	c #E9EDF8",
"5 	c #C9CBD7",
"6 	c #DAE2EC",
"7 	c #E9EDFB",
"8 	c #DDDDEB",
"9 	c #E0DDE2",
"0 	c #DBCFCF",
"a 	c #D3CCCB",
"b 	c #EEF1FC",
"c 	c #E9ECF9",
"d 	c #E6E9F8",
"e 	c #E1E2E9",
"f 	c #E5E0E4",
"g 	c #E7E7F0",
"h 	c #E4E8F8",
"i 	c #ECEFFB",
"j 	c #EAEDF8",
"k 	c #C4C8CF",
"l 	c #B1CAD5",
"m 	c #E8ECF5",
"n 	c #ECEFFA",
"o 	c #D1D0E0",
"p 	c #EBEEF9",
"q 	c #E1CFCD",
"r 	c #E6E6ED",
"s 	c #DCD0CF",
"t 	c #DADCEC",
"u 	c #EDF0FE",
"v 	c #DCDDE1",
"w 	c #DACCC9",
"x 	c #E3E4ED",
"y 	c #DEE0F3",
"z 	c #E7EAF4",
"A 	c #EBEFFB",
"B 	c #E9EDF7",
"C 	c #CCD2D9",
"D 	c #B3CFDC",
"E 	c #E4E6F0",
"F 	c #D0C9D2",
"G 	c #E6E4EB",
"H 	c #E6D7CF",
"I 	c #E7E6EC",
"J 	c #E8E3E4",
"K 	c #D3D3E5",
"L 	c #ECEEF9",
"M 	c #E0DEE3",
"N 	c #E2CFC9",
"O 	c #E0E0E6",
"P 	c #D8D8EB",
"Q 	c #E7EBF4",
"R 	c #D7DBE0",
"S 	c #B0C8D2",
"T 	c #E2E3EE",
"U 	c #D0C8C3",
"V 	c #AFA7AB",
"W 	c #B2A7A8",
"X 	c #D5D0C9",
"Y 	c #E8E4E3",
"Z 	c #E9E9ED",
"` 	c #EBEEFA",
" .	c #CFCFE0",
"..	c #E5E1E5",
"+.	c #E9D7CE",
"@.	c #D8D8EA",
"#.	c #E7E9F4",
"$.	c #DDE1E9",
"%.	c #A4B9BC",
"&.	c #DEDCF2",
"*.	c #D5CDC5",
"=.	c #B0B2B8",
"-.	c #46487D",
";.	c #5C5C76",
">.	c #C2BCB3",
",.	c #E8E6E7",
"'.	c #DADBE7",
").	c #D7D5DE",
"!.	c #E2DBD8",
"~.	c #EBEAEC",
"{.	c #EDDED5",
"].	c #E8E9F3",
"^.	c #DCDDEB",
"/.	c #E7E9F3",
"(.	c #DBDBE5",
"_.	c #EDF0FC",
":.	c #EEF1FF",
"<.	c #E0E2EB",
"[.	c #A6C1CB",
"}.	c #DCD6F1",
"|.	c #DDD5CD",
"1.	c #B3B5CF",
"2.	c #5155A8",
"3.	c #969BBD",
"4.	c #DBD9D6",
"5.	c #F9F2E8",
"6.	c #F2EBE0",
"7.	c #F0EAE0",
"8.	c #E6DED2",
"9.	c #C4BDB8",
"0.	c #E5D3C8",
"a.	c #E6E4ED",
"b.	c #E4E4EF",
"c.	c #D7D4DE",
"d.	c #EFF1FE",
"e.	c #E4E4ED",
"f.	c #ABC5CF",
"g.	c #DDCDEE",
"h.	c #ECE2DC",
"i.	c #CBDAE3",
"j.	c #73A3C8",
"k.	c #5374B7",
"l.	c #CAC7CE",
"m.	c #F9F2E6",
"n.	c #F9F2E7",
"o.	c #FAF2E6",
"p.	c #E5DED4",
"q.	c #605D7B",
"r.	c #625B6D",
"s.	c #B4AFB6",
"t.	c #E8E4ED",
"u.	c #DFD8DC",
"v.	c #D8D2DB",
"w.	c #F2F1FE",
"x.	c #F2F1FD",
"y.	c #EAE7F0",
"z.	c #B9C3C4",
"A.	c #E0C3E8",
"B.	c #F3DFD8",
"C.	c #E2DEDC",
"D.	c #92E8E8",
"E.	c #A2CDDB",
"F.	c #F4EDE3",
"G.	c #FAF1E4",
"H.	c #FAF0E4",
"I.	c #C3BEC7",
"J.	c #4B4999",
"K.	c #62639E",
"L.	c #C0BEC0",
"M.	c #8C8487",
"N.	c #E3D5D6",
"O.	c #DAD1DC",
"P.	c #F3EFFC",
"Q.	c #F2EFFD",
"R.	c #EDE7EF",
"S.	c #D8D4CF",
"T.	c #E7BAE4",
"U.	c #F6D3D2",
"V.	c #FBDBD9",
"W.	c #F5DAD2",
"X.	c #FCECE1",
"Y.	c #FCEFE1",
"Z.	c #FDF0E1",
"`.	c #CAC7D2",
" +	c #667CB2",
".+	c #5153A0",
"++	c #7773A1",
"@+	c #D3CDC6",
"#+	c #C5B3B3",
"$+	c #EADEEA",
"%+	c #F6ECFB",
"&+	c #F6ECFA",
"*+	c #F0E7EF",
"=+	c #D6CCD1",
"-+	c #EEB3E2",
";+	c #F8D7D3",
">+	c #FCD6D5",
",+	c #FCDBD6",
"'+	c #FEE9DC",
")+	c #FEEEDF",
"!+	c #FEEFE0",
"~+	c #FEF0DF",
"{+	c #DBE1DB",
"]+	c #88EEF0",
"^+	c #74BCDA",
"/+	c #B7B2C7",
"(+	c #F0E4D5",
"_+	c #CAB8C6",
":+	c #F8EAF9",
"<+	c #F9EAF8",
"[+	c #F1E3ED",
"}+	c #F2E7F0",
"|+	c #D8C8CB",
"1+	c #F3B0E3",
"2+	c #EECECD",
"3+	c #FEE5D9",
"4+	c #FEE6DB",
"5+	c #FEECDD",
"6+	c #FFEEDF",
"7+	c #FFEFDE",
"8+	c #FFEFDF",
"9+	c #FEECDE",
"0+	c #FEE9DB",
"a+	c #E6D8CE",
"b+	c #E7DDD8",
"c+	c #FEEBE0",
"d+	c #F7E4D6",
"e+	c #DECADE",
"f+	c #FAE5F5",
"g+	c #FBE4F6",
"h+	c #F2DEE0",
"i+	c #F4E8EF",
"j+	c #DDCCD1",
"k+	c #F5AFE3",
"l+	c #DBA0C6",
"m+	c #FBE9D9",
"n+	c #FFEDDD",
"o+	c #FFF0DD",
"p+	c #FEEBDC",
"q+	c #FDDED4",
"r+	c #FCD2D0",
"s+	c #FDDAD6",
"t+	c #FEDFD5",
"u+	c #EDD6CC",
"v+	c #F5D6ED",
"w+	c #FAD8ED",
"x+	c #FED7F2",
"y+	c #EED7D0",
"z+	c #F1E3EE",
"A+	c #F0E3EB",
"B+	c #F6AEE1",
"C+	c #D88CC9",
"D+	c #DDAEC2",
"E+	c #FCECD9",
"F+	c #FFEFDC",
"G+	c #FFEEDD",
"H+	c #FEE1D6",
"I+	c #FDD5D1",
"J+	c #FCD0CF",
"K+	c #FDD8D2",
"L+	c #EDCDC9",
"M+	c #FED1EF",
"N+	c #F6C4E1",
"O+	c #F7C3E4",
"P+	c #CDB7C3",
"Q+	c #E9DAEB",
"R+	c #FBEEF8",
"S+	c #F0ADE0",
"T+	c #D48AC6",
"U+	c #C282B6",
"V+	c #BAA7AB",
"W+	c #F5E4D3",
"X+	c #F2DAC8",
"Y+	c #ECC1B4",
"Z+	c #FEEDDB",
"`+	c #FFECDC",
" @	c #FEE3D7",
".@	c #FEE3D6",
"+@	c #EEC5CD",
"@@	c #FCC2E8",
"#@	c #F9B9E2",
"$@	c #E5B4D8",
"%@	c #BDA6BE",
"&@	c #DDCBE3",
"*@	c #FDEDF8",
"=@	c #E5A8E2",
"-@	c #CD86C2",
";@	c #B477AC",
">@	c #9A9295",
",@	c #E9DED6",
"'@	c #E6D2CA",
")@	c #ECD5C5",
"!@	c #F9E7D4",
"~@	c #FEEDDA",
"{@	c #FCEAD8",
"]@	c #F6E3D2",
"^@	c #ECD8CC",
"/@	c #DEC7C6",
"(@	c #F0B7D6",
"_@	c #F8B6DE",
":@	c #FEB8E9",
"<@	c #CDACCA",
"[@	c #BEA6BF",
"}@	c #DAC7E1",
"|@	c #ECDAE7",
"1@	c #DEA8E3",
"2@	c #C080B5",
"3@	c #BA8EB4",
"4@	c #F9F2EE",
"5@	c #F1E8E2",
"6@	c #DDC7D0",
"7@	c #DBC4CD",
"8@	c #DBB3A6",
"9@	c #D8B6AE",
"0@	c #D7BFC5",
"a@	c #DBC4CC",
"b@	c #DAC3CD",
"c@	c #DBC3CC",
"d@	c #F9B6E3",
"e@	c #F3AFD7",
"f@	c #F0ACDA",
"g@	c #BEA7C3",
"h@	c #BAA2B9",
"i@	c #C3AFC3",
"j@	c #B299AC",
"k@	c #D49DDE",
"l@	c #CB95C9",
"m@	c #DEC6D9",
"n@	c #FFF7F4",
"o@	c #FCF4EF",
"p@	c #E9DCDB",
"q@	c #DCC5CF",
"r@	c #D9C1C9",
"s@	c #DBC4CE",
"t@	c #E3D0D6",
"u@	c #EED8DD",
"v@	c #FEB5E9",
"w@	c #E3A2C7",
"x@	c #CA97BE",
"y@	c #59506A",
"z@	c #59506B",
"A@	c #797EA1",
"B@	c #6B6A88",
"C@	c #CF99D9",
"D@	c #C997D1",
"E@	c #E8D6D9",
"F@	c #FFF6F4",
"G@	c #EFE7DE",
"H@	c #F7EEEB",
"I@	c #EEDFE2",
"J@	c #ECDDE0",
"K@	c #F1E3E5",
"L@	c #FAF1F0",
"M@	c #F8F0EB",
"N@	c #EDCCD9",
"O@	c #F5AEE4",
"P@	c #D59ECC",
"Q@	c #EBD3E1",
"R@	c #7C7481",
"S@	c #5A526F",
"T@	c #777A9D",
"U@	c #666382",
". + @ # $ % & * = = - - ; = > > , ' ) ! ",
"~ { ] ^ / ( _ : < + < [ } | 1 2 3 4 5 6 ",
"< { 7 8 9 0 a b c d e f g h 1 i j < k l ",
"m n o p q r s < t u v w x y z A B < C D ",
"{ E F G H I J < K L M N O P Q i B < R S ",
"T U V W X Y Z `  ...} +.[ @.Q #.p < $.%.",
"&.*.=.-.;.>.,.'.).!.~.{.].^./.(._.:.<.[.",
"}.|.1.2.3.4.5.6.7.8.9.0.a.b.} c.d.d.e.f.",
"g.h.i.j.k.l.m.n.o.p.q.r.s.t.u.v.w.x.y.z.",
"A.B.C.D.E.F.G.H.H.I.J.K.L.M.N.O.P.Q.R.S.",
"T.U.V.W.X.Y.Z.Z.Z.`. +.+++@+#+$+%+&+*+=+",
"-+;+>+,+'+)+!+~+!+{+]+^+/+(+_+:+<+[+}+|+",
"1+2+3+4+5+6+7+8+9+0+a+b+c+d+e+f+g+h+i+j+",
"k+l+m+n+7+o+o+7+p+q+r+s+t+u+v+w+x+y+z+A+",
"B+C+D+E+F+F+F+G+p+H+I+J+K+L+M+N+O+P+Q+R+",
"S+T+U+V+W+X+Y+Z+`+0+ @H+.@+@@@#@$@%@&@*@",
"=@-@;@>@,@'@)@!@~@{@]@^@/@(@_@:@<@[@}@|@",
"1@2@3@4@5@6@7@8@9@0@a@b@c@d@e@f@g@h@i@j@",
"k@l@m@n@o@p@q@r@s@s@s@t@u@v@w@x@y@z@A@B@",
"C@D@E@F@F@G@H@I@J@K@L@M@N@O@P@Q@R@S@T@U@"};
