/* XPM */
static char * lucy_xpm[] = {
"20 20 305 2",
"  	c None",
". 	c #F9F6D5",
"+ 	c #FCFAE4",
"@ 	c #FBF8D6",
"# 	c #FAF5CE",
"$ 	c #FAF5D0",
"% 	c #FBF6D8",
"& 	c #F5F1CC",
"* 	c #F6F2C7",
"= 	c #FAF5C6",
"- 	c #FAF5CA",
"; 	c #F9F4C8",
"> 	c #F8F3C9",
", 	c #F7F1C5",
"' 	c #F6F0C2",
") 	c #F6F0C5",
"! 	c #FBF7DF",
"~ 	c #F5EDBE",
"{ 	c #F4EBC3",
"] 	c #F1EBB3",
"^ 	c #F7F1B6",
"/ 	c #F7F1B8",
"( 	c #F4EDB7",
"_ 	c #F5EEBA",
": 	c #F5EDBB",
"< 	c #F3E9B7",
"[ 	c #F5EBB9",
"} 	c #F5EDC0",
"| 	c #F2EBC6",
"1 	c #F3EBC0",
"2 	c #F7F1CA",
"3 	c #F6F1CF",
"4 	c #F8F2BB",
"5 	c #F7F1BB",
"6 	c #F7F0BB",
"7 	c #EAE2AD",
"8 	c #F6EFC0",
"9 	c #F6EFC3",
"0 	c #F0E8BD",
"a 	c #F6F1C8",
"b 	c #F8F2CB",
"c 	c #F8F3D1",
"d 	c #F2EED7",
"e 	c #F7F2D1",
"f 	c #FBF7D9",
"g 	c #F4F1D4",
"h 	c #F7F4D2",
"i 	c #FBF8D8",
"j 	c #FAF6CC",
"k 	c #EAE3B5",
"l 	c #E6DAB5",
"m 	c #F4F0CA",
"n 	c #F9F5D3",
"o 	c #E8E0BB",
"p 	c #F2EEC9",
"q 	c #F8F4D4",
"r 	c #FCF8DB",
"s 	c #EAE5C6",
"t 	c #E9E5C2",
"u 	c #EEEAC7",
"v 	c #F9F6D8",
"w 	c #F9F6DD",
"x 	c #F9F5D1",
"y 	c #DBCCA4",
"z 	c #EEE2C7",
"A 	c #EFEAC7",
"B 	c #F9F6D6",
"C 	c #E9DFC0",
"D 	c #D9CEA6",
"E 	c #EAE4C0",
"F 	c #F5F1D0",
"G 	c #F5F0D1",
"H 	c #CBC18E",
"I 	c #E7E0B9",
"J 	c #F9F4CF",
"K 	c #EDE7BC",
"L 	c #F8F4D0",
"M 	c #F7F5D7",
"N 	c #F2EDC9",
"O 	c #E1CDB3",
"P 	c #EFDFC8",
"Q 	c #E6DFB8",
"R 	c #F4EFCB",
"S 	c #EBE3C1",
"T 	c #E3D1B7",
"U 	c #D3C29D",
"V 	c #E0D9B0",
"W 	c #F7F2DA",
"X 	c #DDD7B6",
"Y 	c #CEC390",
"Z 	c #F3EBBE",
"` 	c #E4DAA8",
" .	c #E3DAA0",
"..	c #E8E1A6",
"+.	c #F0EABA",
"@.	c #F0EBC7",
"#.	c #E2D8A8",
"$.	c #EFDCCC",
"%.	c #E9D6C4",
"&.	c #D5C89F",
"*.	c #E1D9AE",
"=.	c #D5CB99",
"-.	c #F5E1D0",
";.	c #CCBB9C",
">.	c #D8C7AA",
",.	c #CDC295",
"'.	c #DCD2A4",
").	c #C3B77C",
"!.	c #EADFAC",
"~.	c #EADFA8",
"{.	c #E0D79B",
"].	c #DDD497",
"^.	c #E3DA9B",
"/.	c #E3D999",
"(.	c #CDBE8B",
"_.	c #F8E6D8",
":.	c #FDE8DA",
"<.	c #D8C7A0",
"[.	c #D7C3A6",
"}.	c #CCBF84",
"|.	c #DFCEB1",
"1.	c #FBE6D8",
"2.	c #E6D3BF",
"3.	c #D5C0A4",
"4.	c #CEBF89",
"5.	c #C2B475",
"6.	c #E5DAA7",
"7.	c #DFD49D",
"8.	c #D9D199",
"9.	c #E8DE9F",
"0.	c #E1D697",
"a.	c #C8B684",
"b.	c #FEE9DC",
"c.	c #FFE9DC",
"d.	c #EBD6C2",
"e.	c #E7D4BB",
"f.	c #E4CDB7",
"g.	c #C3B182",
"h.	c #EFDDCB",
"i.	c #F3DFD1",
"j.	c #F7E5D7",
"k.	c #E7D3C1",
"l.	c #BAAA72",
"m.	c #F1E9BA",
"n.	c #DDD3A1",
"o.	c #F0EBC3",
"p.	c #E4DA9A",
"q.	c #E4D89A",
"r.	c #C8B686",
"s.	c #FCE7DA",
"t.	c #E0CDC0",
"u.	c #CAB7A7",
"v.	c #E3CFBC",
"w.	c #F9E4D6",
"x.	c #E2D2C3",
"y.	c #D4C4B8",
"z.	c #D2C3B7",
"A.	c #D3C6BA",
"B.	c #DFCEB6",
"C.	c #E5DFB7",
"D.	c #D5CA95",
"E.	c #E8E0AE",
"F.	c #DBD190",
"G.	c #D8CD90",
"H.	c #CEBB96",
"I.	c #CEC0B3",
"J.	c #EED7CA",
"K.	c #F7DFD2",
"L.	c #F7E1D4",
"M.	c #FDEADC",
"N.	c #FEE8DC",
"O.	c #FEE3D7",
"P.	c #FFE4D8",
"Q.	c #FEE6DA",
"R.	c #D9CAAF",
"S.	c #E7DFB2",
"T.	c #D1C68C",
"U.	c #DED298",
"V.	c #E5DBA2",
"W.	c #F3ECBC",
"X.	c #DFD599",
"Y.	c #CFC387",
"Z.	c #E4D4B3",
"`.	c #FEE4D7",
" +	c #FEDCD0",
".+	c #FEDED3",
"++	c #FBE7D9",
"@+	c #FBE8DA",
"#+	c #FFE7DB",
"$+	c #FEE9DB",
"%+	c #FEEBDE",
"&+	c #C3B493",
"*+	c #E8DDA9",
"=+	c #C9BC80",
"-+	c #D3C788",
";+	c #DCD298",
">+	c #F1EBBD",
",+	c #E2DBAA",
"'+	c #C8BD82",
")+	c #BDAE7A",
"!+	c #F7E2D4",
"~+	c #FFE6D9",
"{+	c #FFE8DB",
"]+	c #FFE8DC",
"^+	c #FEEADC",
"/+	c #FDE8DB",
"(+	c #FEECDE",
"_+	c #FEEEE1",
":+	c #B6A77E",
"<+	c #E5D9A4",
"[+	c #D3C78A",
"}+	c #D8CD92",
"|+	c #E0D7A1",
"1+	c #EAE2B4",
"2+	c #BFB278",
"3+	c #BFAF7B",
"4+	c #DDCAB8",
"5+	c #FEEADD",
"6+	c #FBE6DA",
"7+	c #F1E2D9",
"8+	c #E6D8D0",
"9+	c #E7DAD3",
"0+	c #EAD9CD",
"a+	c #FEEDE0",
"b+	c #EDDDCD",
"c+	c #A29158",
"d+	c #E0D49D",
"e+	c #C7BA7F",
"f+	c #E7DCA3",
"g+	c #DBD198",
"h+	c #EBE3AC",
"i+	c #D0C583",
"j+	c #F2E8B1",
"k+	c #B2A469",
"l+	c #BFB276",
"m+	c #BDA78B",
"n+	c #FBE9DB",
"o+	c #FEEBDD",
"p+	c #E8D5C8",
"q+	c #AC8379",
"r+	c #BD9289",
"s+	c #BE8F89",
"t+	c #E8D3C6",
"u+	c #F5E4D5",
"v+	c #A99B6F",
"w+	c #AC9F5F",
"x+	c #DACF96",
"y+	c #DACE93",
"z+	c #D3C88C",
"A+	c #F8F3C8",
"B+	c #E5DCA6",
"C+	c #CCC182",
"D+	c #F3E8B2",
"E+	c #B9AC72",
"F+	c #A6985A",
"G+	c #C6BA81",
"H+	c #BFAF8D",
"I+	c #F3E2D2",
"J+	c #EDD7CA",
"K+	c #E6C7BD",
"L+	c #EDD6C9",
"M+	c #F5E4D4",
"N+	c #AD9E71",
"O+	c #A19355",
"P+	c #B4A665",
"Q+	c #D2C78B",
"R+	c #E7DEA9",
"S+	c #D5CA8F",
"T+	c #DBD4A1",
"U+	c #E5DDA7",
"V+	c #D4CA95",
"W+	c #ECE4B2",
"X+	c #C1B57D",
"Y+	c #A29456",
"Z+	c #C1B477",
"`+	c #B2A56B",
" @	c #9A8E5E",
".@	c #CDB9A7",
"+@	c #EDD7C7",
"@@	c #F2DECF",
"#@	c #EAD6C5",
"$@	c #C3AB96",
"%@	c #777C78",
"&@	c #938B62",
"*@	c #B3A663",
"=@	c #C8BB7B",
"-@	c #F5EEBE",
";@	c #E2DAA8",
">@	c #D6CE98",
",@	c #CFC698",
"'@	c #E3DAA9",
")@	c #CEC48F",
"!@	c #AFA160",
"~@	c #B8B186",
"{@	c #4F6F8D",
"]@	c #AF9F96",
"^@	c #D3B79F",
"/@	c #C6AC96",
"(@	c #61748C",
"_@	c #557088",
":@	c #A39863",
"<@	c #C0B46D",
"[@	c #E3DCAA",
"}@	c #EDE8BE",
"|@	c #EDE7BA",
"                                        ",
"            . + @ # $ % &               ",
"        * = - ; > , ' ) ! ~ {           ",
"      ] ^ / ( _ : < [ } | 1 2 3         ",
"      4 5 6 7 8 9 0 a b c d e f g       ",
"    h i j k l m n o p q r s t u .       ",
"    v w x y z A B C D E F G H I J K     ",
"    L M N O P Q R S T U V W X Y Z `  .  ",
"  ..+.@.#.$.%.&.*.=.-.;.>.,.'.).!.~.  {.",
"  ].^./.(._.:.<.[.}.|.1.2.3.4.5.6.7.    ",
"  8.9.0.a.b.c.d.e.f.g.h.i.j.k.l.m.n.o.  ",
"    p.q.r.s.t.u.v.:.w.x.y.z.A.B.C.D.E.  ",
"    F.G.H.I.J.K.L.c.M.N.O.P.Q.R.S.T.U.V.",
"  W.X.Y.Z.`. +.+`.++@+c.#+$+%+&+*+=+-+;+",
"  >+,+'+)+!+~+{+]+^+/+c.b.(+_+:+<+}.[+}+",
"  |+1+2+3+4+5+c.6+7+8+9+0+a+b+c+d+e+f+g+",
"h+i+j+k+l+m+n+o+p+q+r+s+t+u+v+w+x+y+z+A+",
"B+C+D+E+F+G+H+I+(+J+K+L+M+N+O+P+Q+R+S+T+",
"U+V+W+X+Y+Z+`+ @.@+@@@#@$@%@&@*@=@-@;@>@",
"  ,@'@)@*@!@~@{@]@^@^@^@/@(@_@:@<@[@}@|@"};
