/* XPM */
static char * miku_xpm[] = {
"20 20 297 2",
"  	c None",
". 	c #915B60",
"+ 	c #985E62",
"@ 	c #9D6465",
"# 	c #9F6769",
"$ 	c #A3696B",
"% 	c #9A6162",
"& 	c #985D5E",
"* 	c #A26565",
"= 	c #A66869",
"- 	c #A86C6C",
"; 	c #AC7070",
"> 	c #AB6F6F",
", 	c #AA6E6E",
"' 	c #A56868",
") 	c #9C6366",
"! 	c #95666E",
"~ 	c #A36767",
"{ 	c #A16465",
"] 	c #A76B6B",
"^ 	c #AD7271",
"/ 	c #A86D6D",
"( 	c #A16363",
"_ 	c #A16464",
": 	c #8B5357",
"< 	c #A66A6A",
"[ 	c #A66969",
"} 	c #AC7170",
"| 	c #AF7574",
"1 	c #B17978",
"2 	c #B47D7C",
"3 	c #B68180",
"4 	c #B68080",
"5 	c #B27A7A",
"6 	c #AF7675",
"7 	c #AC7171",
"8 	c #A46666",
"9 	c #9F6466",
"0 	c #A26768",
"a 	c #A46767",
"b 	c #AE7373",
"c 	c #B27A79",
"d 	c #BA8788",
"e 	c #BD8B8D",
"f 	c #C18F8F",
"g 	c #BF8E8E",
"h 	c #BE8C8C",
"i 	c #B37F7F",
"j 	c #B17979",
"k 	c #AE7272",
"l 	c #A76969",
"m 	c #A66868",
"n 	c #8E5659",
"o 	c #8E5758",
"p 	c #AD7372",
"q 	c #B47D7D",
"r 	c #B98688",
"s 	c #C08E91",
"t 	c #C49697",
"u 	c #C09596",
"v 	c #C99D9E",
"w 	c #C39798",
"x 	c #C79B9D",
"y 	c #BE8E8F",
"z 	c #AF7676",
"A 	c #A96D6D",
"B 	c #955959",
"C 	c #A1696C",
"D 	c #AD7171",
"E 	c #B47C7C",
"F 	c #B88585",
"G 	c #C19394",
"H 	c #C99FA1",
"I 	c #C79C9F",
"J 	c #CFA7AA",
"K 	c #E2A9AF",
"L 	c #C99FA0",
"M 	c #C69C9E",
"N 	c #C08F90",
"O 	c #B5807F",
"P 	c #A16565",
"Q 	c #B57979",
"R 	c #BE8584",
"S 	c #BA8685",
"T 	c #BE8D8E",
"U 	c #C5999A",
"V 	c #CDA3A6",
"W 	c #CDA4A8",
"X 	c #CA9FA2",
"Y 	c #CEA5AA",
"Z 	c #F5CCD4",
"` 	c #D3A2A6",
" .	c #D0A8AA",
"..	c #C29596",
"+.	c #B98686",
"@.	c #AF7473",
"#.	c #B77C7C",
"$.	c #B07474",
"%.	c #D69B9B",
"&.	c #E1AAAB",
"*.	c #D29FA1",
"=.	c #DAAFB0",
"-.	c #D5A7A9",
";.	c #D7AFB3",
">.	c #D0A7AB",
",.	c #D2A6A8",
"'.	c #DAABB0",
").	c #F9E3EA",
"!.	c #E9C7CD",
"~.	c #D2A9AB",
"{.	c #E1B9BB",
"].	c #DBA9AB",
"^.	c #E0A6A5",
"/.	c #C78B8C",
"(.	c #D79899",
"_.	c #AF7678",
":.	c #BA8180",
"<.	c #CE999A",
"[.	c #D1A1A1",
"}.	c #DEB5B6",
"|.	c #E8C4CA",
"1.	c #DAB4B5",
"2.	c #D8AEB0",
"3.	c #D09B9F",
"4.	c #D9AAAE",
"5.	c #F7E7ED",
"6.	c #F4DFE6",
"7.	c #CEA1A2",
"8.	c #E4BFC2",
"9.	c #DEADAE",
"0.	c #C68D8C",
"a.	c #CE9292",
"b.	c #BB7F7F",
"c.	c #B1787A",
"d.	c #AD7373",
"e.	c #B17B7A",
"f.	c #C39596",
"g.	c #9C7AAC",
"h.	c #9C84B5",
"i.	c #C6999B",
"j.	c #C19293",
"k.	c #D3A0A6",
"l.	c #AA8494",
"m.	c #604085",
"n.	c #9981A3",
"o.	c #BF9295",
"p.	c #CFA6A6",
"q.	c #C59697",
"r.	c #B37A79",
"s.	c #B07575",
"t.	c #8F5759",
"u.	c #AB7272",
"v.	c #AE7777",
"w.	c #C7979B",
"x.	c #9B9CD4",
"y.	c #8197CF",
"z.	c #C49696",
"A.	c #D1A7AB",
"B.	c #DEBABE",
"C.	c #E8D7E6",
"D.	c #5393E7",
"E.	c #92A2D7",
"F.	c #D2AEB2",
"G.	c #C3999A",
"H.	c #C09193",
"I.	c #B27978",
"J.	c #9D6060",
"K.	c #8D5252",
"L.	c #8D5050",
"M.	c #A46B6B",
"N.	c #B17D7D",
"O.	c #D8A9AE",
"P.	c #F5D0DA",
"Q.	c #DCB0B7",
"R.	c #C79C9C",
"S.	c #F0DAE1",
"T.	c #E8C5CC",
"U.	c #F8DCE5",
"V.	c #F5D3E0",
"W.	c #F7D2DD",
"X.	c #DAB5BB",
"Y.	c #C29698",
"Z.	c #AC7373",
"`.	c #915555",
" +	c #8C5050",
".+	c #824546",
"++	c #A3696A",
"@+	c #E4BAC0",
"#+	c #F0C9D2",
"$+	c #C9A2A4",
"%+	c #E4CFD4",
"&+	c #E7CBD1",
"*+	c #FAE9EF",
"=+	c #F7D2DB",
"-+	c #F5CDD7",
";+	c #F8D1DC",
">+	c #DBB4BB",
",+	c #C29597",
"'+	c #BB8889",
")+	c #A06565",
"!+	c #8F5353",
"~+	c #814344",
"{+	c #7B3F3F",
"]+	c #A87070",
"^+	c #AE7878",
"/+	c #C8A0A3",
"(+	c #C69FA4",
"_+	c #E7D2D7",
":+	c #EAD7DD",
"<+	c #F9E7EE",
"[+	c #F9E2EA",
"}+	c #F9D7E1",
"|+	c #F9D9E2",
"1+	c #D8B6BB",
"2+	c #C49999",
"3+	c #905152",
"4+	c #8D5151",
"5+	c #6E2E2F",
"6+	c #6C3030",
"7+	c #985D5F",
"8+	c #975C5C",
"9+	c #985B5B",
"0+	c #DBC4C9",
"a+	c #FBECF3",
"b+	c #FCECF3",
"c+	c #FCEBF3",
"d+	c #D1AEB2",
"e+	c #A97172",
"f+	c #884A4B",
"g+	c #76393A",
"h+	c #632828",
"i+	c #692D2F",
"j+	c #916067",
"k+	c #824B4F",
"l+	c #794041",
"m+	c #773E3E",
"n+	c #80494A",
"o+	c #D9BEC5",
"p+	c #FBEBF2",
"q+	c #F9EAF1",
"r+	c #F7E4EC",
"s+	c #C19798",
"t+	c #BA8A8A",
"u+	c #834344",
"v+	c #713536",
"w+	c #5A1A1E",
"x+	c #652829",
"y+	c #734048",
"z+	c #9F6265",
"A+	c #5E1E24",
"B+	c #632627",
"C+	c #6B3030",
"D+	c #5F2D74",
"E+	c #9D8AA5",
"F+	c #E9D6DE",
"G+	c #FAE8EF",
"H+	c #E5D1D8",
"I+	c #B09EA4",
"J+	c #A9838A",
"K+	c #B98989",
"L+	c #9A5F60",
"M+	c #642527",
"N+	c #5D1B1E",
"O+	c #634776",
"P+	c #543EA4",
"Q+	c #905B63",
"R+	c #5B1C24",
"S+	c #5C3A60",
"T+	c #5160DA",
"U+	c #3B3341",
"V+	c #3D343C",
"W+	c #765B64",
"X+	c #565AB0",
"Y+	c #4F63D8",
"Z+	c #8462AA",
"`+	c #A16A7C",
" @	c #4038B8",
".@	c #4633AA",
"+@	c #2D40DC",
"@@	c #2A58F8",
"#@	c #204EF4",
"$@	c #995E63",
"%@	c #4B61C1",
"&@	c #4048B5",
"*@	c #3D343D",
"=@	c #413840",
"-@	c #4D4BAC",
";@	c #263ED1",
">@	c #9196DA",
",@	c #966178",
"'@	c #98A0DB",
")@	c #4261F3",
"!@	c #0D46FA",
"~@	c #2F5AF2",
"{@	c #0D46F7",
"]@	c #436DF3",
"^@	c #8DCAF1",
"              . + @ # $ %               ",
"          & * = - ; ; > , ' )           ",
"      ! ~ { ] ; ^ ^ ^ / ; > ( _         ",
"    : < [ } | 1 2 3 4 5 6 7 > 8 9       ",
"    0 a b c 4 d e f g h i j k l m n     ",
"  o - p q r s t u v w x y d z , A B     ",
"  C D E F G x H I J K L M N O D [ P     ",
"  Q R S T U V W X Y Z `  ...+.@.#.$.    ",
"  %.&.*.=.-.;.>.,.'.).!.~.{.].^./.(._.  ",
"  :.<.[.}.|.1.2.3.4.5.6.7.8.9.0.a.b.c.  ",
"  d.e.f.g.h.i.j.k.l.m.n.o.p.q.r.s.B t.  ",
"  u.v.w.x.y.z.A.B.C.D.E.F.G.H.I.J.K.L.  ",
"  M.N.O.P.Q.R.S.T.U.V.W.X.Y.T Z.`. +.+  ",
"  ++4 @+#+$+%+&+*+=+-+;+>+,+'+)+!+~+{+  ",
"  ]+^+/+(+_+:+<+5.[+}+|+1+2++.3+4+5+6+  ",
"  7+8+9+0+a+a+b+c+a+a+a+d+u e+f+g+h+i+  ",
"j+k+l+m+n+o+p+a+q+a+a+r+s+t+u+v+w+x+y+  ",
"z+  A+B+C+D+E+F+G+H+I+J+K+L+M+N+O+P+    ",
"Q+    R+S+T+U+V+W+X+Y+Z+`+ @.@+@@@#@    ",
"  $@    %@&@*@=@-@;@>@,@'@)@!@~@{@]@^@  "};
