/* XPM */
static char * ram_xpm[] = {
"20 20 305 2",
"  	c None",
". 	c #F8D8ED",
"+ 	c #FAD9EE",
"@ 	c #FBD9EF",
"# 	c #F9D8ED",
"$ 	c #F7DBED",
"% 	c #FAD8EE",
"& 	c #F8D5EC",
"* 	c #F7CFE9",
"= 	c #F6DDED",
"- 	c #F0DAE9",
"; 	c #F2CBE3",
"> 	c #F1E2EC",
", 	c #FBFAFB",
"' 	c #FEFEFE",
") 	c #F3E5EE",
"! 	c #F8D2EA",
"~ 	c #FCD4EE",
"{ 	c #FED0ED",
"] 	c #FACAE9",
"^ 	c #F2D9E6",
"/ 	c #FEFFFF",
"( 	c #F4F4F5",
"_ 	c #F7E0EB",
": 	c #F4D1E2",
"< 	c #F7D6E6",
"[ 	c #FEFAFC",
"} 	c #ECD3E3",
"| 	c #F4D6EA",
"1 	c #F6E0EF",
"2 	c #FAE3F2",
"3 	c #F7CCE7",
"4 	c #F1B6DA",
"5 	c #E2B8CE",
"6 	c #FDFDFD",
"7 	c #FFFFFF",
"8 	c #F0B6D3",
"9 	c #FAEEF4",
"0 	c #FBEBF3",
"a 	c #FCFDFD",
"b 	c #FDFDFE",
"c 	c #FBFCFD",
"d 	c #F9FAFB",
"e 	c #F4EFF4",
"f 	c #F3B6DB",
"g 	c #EDB0D5",
"h 	c #F3F3F4",
"i 	c #FAFBFB",
"j 	c #FBEFF5",
"k 	c #F8E2EC",
"l 	c #F6DAE7",
"m 	c #FCF9FB",
"n 	c #FBFBFC",
"o 	c #F6F8FA",
"p 	c #E6B8D5",
"q 	c #F3B5DB",
"r 	c #F7F8F9",
"s 	c #E7E2E1",
"t 	c #E3D6CF",
"u 	c #E3D2C8",
"v 	c #E1D2CA",
"w 	c #E4DBD9",
"x 	c #EFF0F2",
"y 	c #FAFBFC",
"z 	c #FCFCFD",
"A 	c #F8F9FB",
"B 	c #E0C8DA",
"C 	c #EBB8D7",
"D 	c #ECACD4",
"E 	c #F5F6F8",
"F 	c #E1DAD9",
"G 	c #DABCA8",
"H 	c #E9C6A9",
"I 	c #EAC8AB",
"J 	c #EECCAE",
"K 	c #EBC8AA",
"L 	c #E6C2A5",
"M 	c #D1AC97",
"N 	c #CEBDBC",
"O 	c #EFEFF1",
"P 	c #F1F4F7",
"Q 	c #EBEFF3",
"R 	c #E3D9E6",
"S 	c #EFF1F3",
"T 	c #DCCEC7",
"U 	c #E0BEA2",
"V 	c #E8C8AC",
"W 	c #F0CFB1",
"X 	c #E3C0A4",
"Y 	c #EFCEB0",
"Z 	c #ECCBAD",
"` 	c #E6C3A6",
" .	c #E4C1A4",
"..	c #E4BFA1",
"+.	c #BC9991",
"@.	c #E3E2E5",
"#.	c #F2F4F7",
"$.	c #EDF1F5",
"%.	c #DDE4EB",
"&.	c #DDD9D6",
"*.	c #F0DFC7",
"=.	c #F3DDC0",
"-.	c #E1C0A6",
";.	c #F0D1B4",
">.	c #DBB49A",
",.	c #EBCAAD",
"'.	c #E6C4A7",
").	c #DBB497",
"!.	c #AF8D89",
"~.	c #E3E5E9",
"{.	c #E6EBF0",
"].	c #D6DCE5",
"^.	c #EAD7BE",
"/.	c #E9CDB0",
"(.	c #E1C2A7",
"_.	c #ECCBB5",
":.	c #EED8BE",
"<.	c #DEB89F",
"[.	c #E8C9AC",
"}.	c #F1D4B6",
"|.	c #DBB99D",
"1.	c #EFD2B3",
"2.	c #E5C8AA",
"3.	c #EACBAC",
"4.	c #C49A83",
"5.	c #B79E9D",
"6.	c #E3E8EE",
"7.	c #E5EAF0",
"8.	c #CDC9D6",
"9.	c #F0D6B8",
"0.	c #DFBFA4",
"a.	c #DEBBA2",
"b.	c #F7E8D6",
"c.	c #DFC1A7",
"d.	c #DFB79D",
"e.	c #DFBAA3",
"f.	c #ECCBAE",
"g.	c #CFA88F",
"h.	c #EBCAAC",
"i.	c #DFBB9F",
"j.	c #E7C5A6",
"k.	c #D6B094",
"l.	c #BF937F",
"m.	c #C6C5CC",
"n.	c #DCE3EB",
"o.	c #D8DFE8",
"p.	c #D6DEE6",
"q.	c #E8CDB0",
"r.	c #E4C7AB",
"s.	c #E1C1A5",
"t.	c #C2AB9A",
"u.	c #E7DBCB",
"v.	c #E3CFBC",
"w.	c #E1BCA1",
"x.	c #F0DBC7",
"y.	c #DAB499",
"z.	c #CCA48B",
"A.	c #E2C0A3",
"B.	c #E6C4A6",
"C.	c #DEBA9D",
"D.	c #E2BD9E",
"E.	c #C69B83",
"F.	c #BFA7A1",
"G.	c #D8DEE6",
"H.	c #E8CBAD",
"I.	c #DCBDA2",
"J.	c #C9A88F",
"K.	c #7F818A",
"L.	c #7C706E",
"M.	c #F7ECDA",
"N.	c #DAB79E",
"O.	c #EADECD",
"P.	c #B89784",
"Q.	c #D5AD94",
"R.	c #E3BFA2",
"S.	c #E8C6A7",
"T.	c #DAB498",
"U.	c #CBA288",
"V.	c #C79D84",
"W.	c #D2D7DE",
"X.	c #E0E6EC",
"Y.	c #EBEEF2",
"Z.	c #E3C4A8",
"`.	c #D5B299",
" +	c #BC9884",
".+	c #BBBBC3",
"++	c #82858F",
"@+	c #FFF7E5",
"#+	c #F4E7D5",
"$+	c #D6D3CF",
"%+	c #4E495A",
"&+	c #B08C7A",
"*+	c #DBB99C",
"=+	c #DAB598",
"-+	c #E5C0A0",
";+	c #CCA58A",
">+	c #C99E84",
",+	c #CCC8C9",
"'+	c #E0E5EA",
")+	c #DEC0A3",
"!+	c #CDA890",
"~+	c #C39D8B",
"{+	c #F3D8C8",
"]+	c #F3E8D9",
"^+	c #FFF2E1",
"/+	c #FFF6E4",
"(+	c #F4F1EC",
"_+	c #617293",
":+	c #525369",
"<+	c #CDAD92",
"[+	c #E9C7A8",
"}+	c #D6B396",
"|+	c #E1BD9D",
"1+	c #D2AC8E",
"2+	c #C49980",
"3+	c #C2A899",
"4+	c #DDC1A5",
"5+	c #DFBFA3",
"6+	c #C69F88",
"7+	c #C5A897",
"8+	c #FFF0DD",
"9+	c #FEF2E0",
"0+	c #FEF0DF",
"a+	c #C1B2B6",
"b+	c #E3C5BC",
"c+	c #E2C1A4",
"d+	c #EACAAB",
"e+	c #CFAD91",
"f+	c #E1BC9D",
"g+	c #D1AC8F",
"h+	c #C59B81",
"i+	c #C8A48B",
"j+	c #DAC0A4",
"k+	c #D9B89C",
"l+	c #C09883",
"m+	c #B08D7F",
"n+	c #F9F1DF",
"o+	c #F3E1D1",
"p+	c #EFC3B6",
"q+	c #FBF0DF",
"r+	c #FFF3E1",
"s+	c #FFE4D1",
"t+	c #FBD9C6",
"u+	c #DEBD9F",
"v+	c #E7C9AB",
"w+	c #C29F85",
"x+	c #DEBA9B",
"y+	c #CDA98E",
"z+	c #C9A085",
"A+	c #C9A289",
"B+	c #DDC8AF",
"C+	c #D0AE96",
"D+	c #C8A189",
"E+	c #A37A70",
"F+	c #B7A49E",
"G+	c #F9E9D9",
"H+	c #FDC2B1",
"I+	c #FAE9D8",
"J+	c #FFF6E5",
"K+	c #FFF5E3",
"L+	c #E0CAB7",
"M+	c #DBBC9F",
"N+	c #E9CDAE",
"O+	c #B18D78",
"P+	c #DBB698",
"Q+	c #C19E85",
"R+	c #CDA589",
"S+	c #CCA287",
"T+	c #F2E3D1",
"U+	c #EDCDB7",
"V+	c #C2977F",
"W+	c #916C69",
"X+	c #B3A5A3",
"Y+	c #F2DECE",
"Z+	c #F7E7D6",
"`+	c #F4DECC",
" @	c #E2C6B5",
".@	c #A78D84",
"+@	c #DBC0A3",
"@@	c #DCBDA0",
"#@	c #9E7869",
"$@	c #DCB799",
"%@	c #A98874",
"&@	c #CBA487",
"*@	c #D4AB8D",
"=@	c #CEAF95",
"-@	c #F2C9B1",
";@	c #F1C9C3",
">@	c #D3A1BF",
",@	c #6FBAE4",
"'@	c #94B4D9",
")@	c #E5E9EE",
"!@	c #B4BCCA",
"~@	c #EAC7B7",
"{@	c #E2C3B9",
"]@	c #C9B4AF",
"^@	c #C9C0BD",
"/@	c #DBC6B0",
"(@	c #B48F7A",
"_@	c #AF8976",
":@	c #C8A48A",
"<@	c #A17D6B",
"[@	c #B7927A",
"}@	c #D6AE8F",
"|@	c #DBB597",
"            . + @ # $ % & *             ",
"          = - ; > , ' ) ! ~ { ]         ",
"        ^ ' / ( _ : < [ } | 1 2 3 4     ",
"      5 6 7 7 7 8 9 : 0 a b c d e f g   ",
"    h i 7 7 7 7 j k l m a c n d o p q   ",
"    r ' 7 d s t u v w x y z b a A B C D ",
"    E a F G H I J K L M N O b a d P Q R ",
"    S T U V W X Y Z `  ...+.@.y o #.$.%.",
"    &.*.=.-.;.>.W ,.'.I  .).!.~.P $.{.].",
"    ^./.(._.:.<.[.}.|.1.2.3.4.5.6.7.%.8.",
"    9.0.a.b.c.d.e.f.g.h.i.j.k.l.m.n.o.p.",
"  q.r.s.t.u.v.w.x.y.z.A.B.C.D.E.F.o.G.%.",
"  H.I.J.K.L.M.N.O.P.Q.R.S.T.D.U.V.W.X.Y.",
"  Z.`. +.+++@+#+$+%+&+*+j.=+-+;+>+,+'+  ",
"  )+!+~+{+]+^+/+(+_+:+<+[+}+|+1+2+3+    ",
"4+5+6+7+8+9+^+/+0+a+b+c+d+e+f+g+h+i+    ",
"j+k+l+m+n+o+p+q+r+s+t+u+v+w+x+y+z+A+    ",
"B+C+D+E+F+G+H+I+J+K+L+M+N+O+P+Q+R+S+    ",
"T+U+V+  W+X+Y+Z+`+ @.@+@@@#@$@%@&@*@=@  ",
"-@;@>@,@'@)@!@~@{@]@^@/@(@_@:@<@[@}@|@  "};
