/* XPM */
static char * rem_xpm[] = {
"20 20 280 2",
"  	c None",
". 	c #F3F0F2",
"+ 	c #DAD6DA",
"@ 	c #C1BEC0",
"# 	c #F4F1F1",
"$ 	c #EBE8E9",
"% 	c #EDEAEC",
"& 	c #AEABAE",
"* 	c #AFACAF",
"= 	c #DCD9DF",
"- 	c #9FB0C8",
"; 	c #8495AC",
"> 	c #9CABC0",
", 	c #E1E0E2",
"' 	c #EDE8EC",
") 	c #C6C4CB",
"! 	c #CFC8C8",
"~ 	c #CFD1DC",
"{ 	c #829BB7",
"] 	c #A0BEDF",
"^ 	c #A0C2E7",
"/ 	c #92BFEA",
"( 	c #93BFEB",
"_ 	c #BACFE8",
": 	c #8CA2BE",
"< 	c #C2C0C1",
"[ 	c #BEBDBE",
"} 	c #B2BAC7",
"| 	c #B3C1D7",
"1 	c #8EBAE5",
"2 	c #87B9E9",
"3 	c #88B9E9",
"4 	c #87BAEA",
"5 	c #88BAEA",
"6 	c #88B8E8",
"7 	c #88BBEA",
"8 	c #89BAE9",
"9 	c #7C9EC2",
"0 	c #E5E3E4",
"a 	c #F4EFF0",
"b 	c #DCD7DC",
"c 	c #E7E2E7",
"d 	c #87ACD6",
"e 	c #7FB5E8",
"f 	c #7FB3E6",
"g 	c #7FB5E9",
"h 	c #7EB3E8",
"i 	c #7EB5EA",
"j 	c #7FB5EA",
"k 	c #82B3E5",
"l 	c #81B5E9",
"m 	c #7CB0E2",
"n 	c #81B6EA",
"o 	c #C7CFDF",
"p 	c #D2BCCD",
"q 	c #BFB2CB",
"r 	c #97A5CD",
"s 	c #A8B8D2",
"t 	c #78AFE3",
"u 	c #77B2E8",
"v 	c #76AFE4",
"w 	c #76B2E9",
"x 	c #74A9DD",
"y 	c #77B2E9",
"z 	c #A7BEE2",
"A 	c #7EAFE0",
"B 	c #75AAE0",
"C 	c #7EB0E5",
"D 	c #7EA9DC",
"E 	c #8DA1D1",
"F 	c #A399C8",
"G 	c #A9A7C8",
"H 	c #97A5D1",
"I 	c #76A6D8",
"J 	c #77B1E7",
"K 	c #75B1E8",
"L 	c #72ACE1",
"M 	c #75B2E8",
"N 	c #70A8DE",
"O 	c #C7CCE2",
"P 	c #B0B6D7",
"Q 	c #7DA0D5",
"R 	c #9292C1",
"S 	c #78B1E7",
"T 	c #AC90BE",
"U 	c #AA87B4",
"V 	c #A87BA6",
"W 	c #A88BB7",
"X 	c #AD92BB",
"Y 	c #76ABDD",
"Z 	c #77B2E7",
"` 	c #73ADE0",
" .	c #73B0E6",
"..	c #74B0E6",
"+.	c #75ACE2",
"@.	c #75AFE6",
"#.	c #DEDAE3",
"$.	c #D6CFD8",
"%.	c #A38EBB",
"&.	c #8696C5",
"*.	c #91A0D2",
"=.	c #A18EBA",
"-.	c #9C8EBD",
";.	c #BE6C99",
">.	c #A189B6",
",.	c #8F85B4",
"'.	c #8AAED7",
").	c #91B6E0",
"!.	c #79B2E8",
"~.	c #73ADE3",
"{.	c #75B0E6",
"].	c #72A9DB",
"^.	c #88B6E7",
"/.	c #75ADE2",
"(.	c #EBE0E1",
"_.	c #F7E8E4",
":.	c #91ABD6",
"<.	c #74A8DD",
"[.	c #92BDEA",
"}.	c #84ACDF",
"|.	c #A08DBC",
"1.	c #9A7AA8",
"2.	c #A584B3",
"3.	c #A180AD",
"4.	c #74A8DB",
"5.	c #7BB0E4",
"6.	c #72A9DD",
"7.	c #6EA7DB",
"8.	c #74B1E7",
"9.	c #70A7DD",
"0.	c #74AFE6",
"a.	c #76B3E9",
"b.	c #74AADD",
"c.	c #E6D9D7",
"d.	c #F6E7E2",
"e.	c #CED2E2",
"f.	c #73ABE1",
"g.	c #76B2E8",
"h.	c #7BB1E6",
"i.	c #A184B1",
"j.	c #B16C9F",
"k.	c #998EBD",
"l.	c #9F8CBB",
"m.	c #72A6D9",
"n.	c #719ECD",
"o.	c #77AEE3",
"p.	c #76ABDF",
"q.	c #77AEE2",
"r.	c #7AB3E8",
"s.	c #74A6DA",
"t.	c #7CB3E8",
"u.	c #78A2CD",
"v.	c #FBEDE9",
"w.	c #F4E4DF",
"x.	c #EEDEDB",
"y.	c #9CB6DC",
"z.	c #73ABDE",
"A.	c #78B3EA",
"B.	c #869BCE",
"C.	c #AC72A5",
"D.	c #A4709E",
"E.	c #7DA1D7",
"F.	c #678FBE",
"G.	c #74A7DA",
"H.	c #87B5E5",
"I.	c #8DB9E6",
"J.	c #8CB7E3",
"K.	c #8FBCE9",
"L.	c #8EB8E4",
"M.	c #92BCE9",
"N.	c #93BEEA",
"O.	c #99B4D7",
"P.	c #E5D6D4",
"Q.	c #898389",
"R.	c #302B4A",
"S.	c #BEB3B4",
"T.	c #79A8DA",
"U.	c #77B1E8",
"V.	c #6C9CD0",
"W.	c #817CB8",
"X.	c #9391C1",
"Y.	c #75A9E0",
"Z.	c #688FC2",
"`.	c #77AADC",
" +	c #93B7E1",
".+	c #A5C1E5",
"++	c #A2BCDD",
"@+	c #AAC6E9",
"#+	c #A6C0DE",
"$+	c #ADC6E8",
"%+	c #AEC8E9",
"&+	c #FDF1EE",
"*+	c #7C96B8",
"=+	c #2677B1",
"-+	c #BBB2B1",
";+	c #8CB4DE",
">+	c #85B5E7",
",+	c #B0B4D4",
"'+	c #AE9BBC",
")+	c #9195C3",
"!+	c #71A4DB",
"~+	c #8FB3DE",
"{+	c #C4D1E9",
"]+	c #B6C1D6",
"^+	c #C8D4E9",
"/+	c #B9C1D4",
"(+	c #CCD5E8",
"_+	c #CDD6E9",
":+	c #B9B9C7",
"<+	c #FFF1EC",
"[+	c #D8D5DA",
"}+	c #D2DAE1",
"|+	c #ECDAD6",
"1+	c #A9C3E4",
"2+	c #9FBEE4",
"3+	c #D7AAB9",
"4+	c #D3B4C5",
"5+	c #9699C6",
"6+	c #6E9CD2",
"7+	c #7AACE0",
"8+	c #D0D4E4",
"9+	c #D7D5DE",
"0+	c #E2DFE7",
"a+	c #E0DCE2",
"b+	c #E7E1E7",
"c+	c #EAE4EA",
"d+	c #E5DDE2",
"e+	c #FFF0EB",
"f+	c #FFECE7",
"g+	c #EAD4D3",
"h+	c #CCD2E4",
"i+	c #C2CADF",
"j+	c #EFC4C4",
"k+	c #BB9FB8",
"l+	c #93A4D3",
"m+	c #738DBE",
"n+	c #75A6D7",
"o+	c #77A7D9",
"p+	c #E8D3D7",
"q+	c #FFEBE7",
"r+	c #FFF1EB",
"s+	c #FFF2ED",
"t+	c #FFF1ED",
"u+	c #FFF0EA",
"v+	c #E8D7D4",
"w+	c #E9E1E7",
"x+	c #DAD1D7",
"y+	c #AFABBF",
"z+	c #917BAB",
"A+	c #8893C6",
"B+	c #6E99C9",
"C+	c #C2C4D4",
"D+	c #FCEDE8",
"E+	c #C2B9C7",
"F+	c #4E74B7",
"G+	c #5377B5",
"H+	c #9F85B5",
"I+	c #707CAB",
"J+	c #E7DDDE",
"K+	c #FCECE7",
"L+	c #FAEAE7",
"M+	c #F6DDDA",
"N+	c #4E5E9B",
"O+	c #5279B7",
"P+	c #648FC5",
"Q+	c #AE628E",
"R+	c #F3E4E0",
"S+	c #FCEDE9",
"T+	c #FFF0EC",
"U+	c #FAE6E1",
"V+	c #F8C8C3",
"W+	c #C08BA1",
"X+	c #5B7FB4",
"Y+	c #F5E5E1",
"Z+	c #F5D0CD",
"`+	c #FABDBA",
" @	c #FEAAAA",
".@	c #FBC5C3",
"+@	c #F1C0C0",
"@@	c #F4EDEF",
"              . +     @ #               ",
"      $ % & * = - ; > , ' )             ",
"      ! ~ { ] ^ / ( / _ : < [ }         ",
"      | 1 2 3 4 5 5 6 7 8 9 0 a b       ",
"  c d e f g h i j k l m n f o p q r     ",
"  s t u v w x u y z A B C D E F G H     ",
"  I J K L M N K M O P Q R S T U V W X   ",
"  Y Z `  ...+.K @.#.$.%.&.*.=.-.;.>.,.  ",
"'.).!.~.{.].^.w /.(._.:.<.[.}.|.1.2.3.  ",
"4.5.6.7.8.9.0.a.b.c.d.e.f.g.h.i.j.k.l.m.",
"n.o.p.q.r.s.t.i u.v.w.x.y.z.A.B.C.D.E.F.",
"G.H.I.J.K.L.M.N.O.P.Q.R.S.T.U.V.W.X.Y.Z.",
"`. +.+++@+#+$+%+| &+*+=+-+;+>+,+'+)+!+  ",
"  ~+{+]+^+/+(+_+:+<+[+}+|+1+2+3+4+5+6+  ",
"  7+8+9+0+a+b+c+d+e+<+f+g+h+i+j+k+l+m+  ",
"  n+o+p+q+<+r+e+s+s+t+u+v+w+x+y+z+A+    ",
"    B+C+<+s+s+s+t+s+t+s+D+E+F+G+H+I+    ",
"        J+s+t+K+L+t+<+<+M+N+O+P+Q+      ",
"          R+S+e+T+e+U+V+W+  X+          ",
"              Y+Z+`+ @.@+@@@            "};
