/* XPM */
static char * salamander_xpm[] = {
"20 20 381 2",
"  	c #D0622E",
". 	c #E69B63",
"+ 	c #A13B23",
"@ 	c #D37F50",
"# 	c #EDA569",
"$ 	c #97331F",
"% 	c #820100",
"& 	c #800000",
"* 	c #7F0001",
"= 	c #7C0001",
"- 	c #730100",
"; 	c #901603",
"> 	c #D43513",
", 	c #FA7A41",
"' 	c #FFB268",
") 	c #FEAF66",
"! 	c #FEAB63",
"~ 	c #EE4719",
"{ 	c #EA4219",
"] 	c #E62202",
"^ 	c #F45B06",
"/ 	c #E28E55",
"( 	c #870601",
"_ 	c #B03F22",
": 	c #DE8D58",
"< 	c #850000",
"[ 	c #860000",
"} 	c #880200",
"| 	c #B53417",
"1 	c #F45B2A",
"2 	c #FE4C20",
"3 	c #FEA761",
"4 	c #FFB76B",
"5 	c #FFB66C",
"6 	c #FFB068",
"7 	c #F16C37",
"8 	c #F46A2D",
"9 	c #E41F00",
"0 	c #FD610B",
"a 	c #CA4519",
"b 	c #8B0100",
"c 	c #C54124",
"d 	c #A10801",
"e 	c #BF1301",
"f 	c #DB1C02",
"g 	c #ED2505",
"h 	c #F42E0C",
"i 	c #FC7B45",
"j 	c #FA6834",
"k 	c #FE9053",
"l 	c #FEB067",
"m 	c #E19356",
"n 	c #C06F3F",
"o 	c #B25F35",
"p 	c #B64C22",
"q 	c #F26E2B",
"r 	c #E6400F",
"s 	c #AE2A01",
"t 	c #E84811",
"u 	c #D22004",
"v 	c #DD2005",
"w 	c #E62404",
"x 	c #F42503",
"y 	c #F72301",
"z 	c #F82402",
"A 	c #FA2B09",
"B 	c #F93B13",
"C 	c #FEA15B",
"D 	c #FD8B49",
"E 	c #E78D4D",
"F 	c #BD6A43",
"G 	c #E7AB9B",
"H 	c #FAA998",
"I 	c #EF8D60",
"J 	c #F1BF86",
"K 	c #E66927",
"L 	c #F3601D",
"M 	c #EB2403",
"N 	c #F86821",
"O 	c #F1320A",
"P 	c #EF2A08",
"Q 	c #F16530",
"R 	c #F0471F",
"S 	c #F82B08",
"T 	c #F92B09",
"U 	c #FC330F",
"V 	c #FA7A43",
"W 	c #FEA85F",
"X 	c #E28D51",
"Y 	c #DFA672",
"Z 	c #F6C291",
"` 	c #ED6151",
" .	c #BC2113",
"..	c #D9301B",
"+.	c #FFECBD",
"@.	c #FF863C",
"#.	c #F4611D",
"$.	c #EA2201",
"%.	c #F9772B",
"&.	c #F87A3E",
"*.	c #FB3912",
"=.	c #FD8C4D",
"-.	c #FD9A58",
";.	c #FA441C",
">.	c #FB3712",
",.	c #FC4119",
"'.	c #FEA461",
").	c #FFA964",
"!.	c #F4A66E",
"~.	c #FFDEA1",
"{.	c #F3C48D",
"].	c #EC3D2A",
"^.	c #E67668",
"/.	c #F2917B",
"(.	c #FEE7BC",
"_.	c #FF8739",
":.	c #EF591D",
"<.	c #D11A01",
"[.	c #F47B34",
"}.	c #FEAB62",
"|.	c #FA6A36",
"1.	c #FE8D4F",
"2.	c #FFAA64",
"3.	c #FD9455",
"4.	c #FD5126",
"5.	c #FE5B2F",
"6.	c #FFA25F",
"7.	c #FFA161",
"8.	c #FFA568",
"9.	c #FFF6D0",
"0.	c #FFFFDA",
"a.	c #F3D3B1",
"b.	c #F3CCB0",
"c.	c #F7D5AF",
"d.	c #FEB57A",
"e.	c #FFA25D",
"f.	c #ED4C1D",
"g.	c #AB0B00",
"h.	c #D1531F",
"i.	c #FFA75D",
"j.	c #FFA55F",
"k.	c #FC8E50",
"l.	c #FC9554",
"m.	c #FE9250",
"n.	c #FE9555",
"o.	c #FE7D45",
"p.	c #FF9B5E",
"q.	c #FE975D",
"r.	c #FF975C",
"s.	c #FFA670",
"t.	c #FEBD8F",
"u.	c #F8AB7E",
"v.	c #FB9B68",
"w.	c #FF985C",
"x.	c #FF9C5C",
"y.	c #FA8F50",
"z.	c #EA3108",
"A.	c #AD0A00",
"B.	c #8E1605",
"C.	c #F98238",
"D.	c #C45F2D",
"E.	c #D68E6C",
"F.	c #DC7848",
"G.	c #DE7445",
"H.	c #FB8F54",
"I.	c #FF874E",
"J.	c #FF9258",
"K.	c #FF9055",
"L.	c #FF8F55",
"M.	c #FF8F56",
"N.	c #FF9057",
"O.	c #FF9156",
"P.	c #FF9559",
"Q.	c #EB753C",
"R.	c #E34618",
"S.	c #D22E04",
"T.	c #9E0B01",
"U.	c #8A0000",
"V.	c #D0662F",
"W.	c #FD9D5B",
"X.	c #FF9B5A",
"Y.	c #FF9759",
"Z.	c #FF9357",
"`.	c #FE8E52",
" +	c #F56537",
".+	c #FF8E54",
"++	c #FF9155",
"@+	c #FF9459",
"#+	c #FF985B",
"$+	c #F57B40",
"%+	c #E74D11",
"&+	c #B03800",
"*+	c #B62904",
"=+	c #AE1A03",
"-+	c #A8391E",
";+	c #FFA767",
">+	c #FF9A5C",
",+	c #FF985A",
"'+	c #FF9558",
")+	c #FF9458",
"!+	c #FF9659",
"~+	c #FF955A",
"{+	c #FF965B",
"]+	c #FF965A",
"^+	c #FF975B",
"/+	c #FF995A",
"(+	c #FF9B5D",
"_+	c #FF9B5B",
":+	c #FE9957",
"<+	c #F56F29",
"[+	c #BE4500",
"}+	c #AC3900",
"|+	c #D43D07",
"1+	c #BE280A",
"2+	c #FD9D5A",
"3+	c #FF9E5E",
"4+	c #FF9C5D",
"5+	c #FF9D5E",
"6+	c #FF9F60",
"7+	c #FEAC73",
"8+	c #FB9B64",
"9+	c #FFA260",
"0+	c #FFA362",
"a+	c #FFA462",
"b+	c #EC6423",
"c+	c #C53E01",
"d+	c #C74304",
"e+	c #B14701",
"f+	c #B84F00",
"g+	c #CA5500",
"h+	c #F68626",
"i+	c #FC8046",
"j+	c #FFA360",
"k+	c #FFA765",
"l+	c #FFA563",
"m+	c #FFA664",
"n+	c #FFA764",
"o+	c #EE894E",
"p+	c #FC7435",
"q+	c #FC763F",
"r+	c #FC7E44",
"s+	c #FFAA65",
"t+	c #FFAD68",
"u+	c #FFAE69",
"v+	c #FD8D46",
"w+	c #FA610E",
"x+	c #C74000",
"y+	c #B24D00",
"z+	c #E86201",
"A+	c #FE7700",
"B+	c #FDA926",
"C+	c #F4570E",
"D+	c #ED6522",
"E+	c #FFAB65",
"F+	c #FFAF6A",
"G+	c #FFB06B",
"H+	c #F38B49",
"I+	c #FD6925",
"J+	c #FD6724",
"K+	c #FE7B34",
"L+	c #FEAC64",
"M+	c #FFB56D",
"N+	c #FFB76E",
"O+	c #FEA961",
"P+	c #E9580F",
"Q+	c #B03A01",
"R+	c #B65300",
"S+	c #FB8B14",
"T+	c #FFF980",
"U+	c #FFDC4C",
"V+	c #FF5706",
"W+	c #FA5113",
"X+	c #F08F4F",
"Y+	c #FEA660",
"Z+	c #FFB76F",
"`+	c #FEB369",
" @	c #FE823B",
".@	c #FD732D",
"+@	c #FF9749",
"@@	c #FEB56C",
"#@	c #FFB86F",
"$@	c #FFB269",
"%@	c #EE9754",
"&@	c #B43D0B",
"*@	c #C5690F",
"=@	c #C36703",
"-@	c #FD923A",
";@	c #FFC244",
">@	c #FF9510",
",@	c #FD5F14",
"'@	c #FE3A12",
")@	c #F84112",
"!@	c #F06C32",
"~@	c #FAAC66",
"{@	c #FFB971",
"]@	c #FFB064",
"^@	c #FFAB5B",
"/@	c #FFB467",
"(@	c #FFB870",
"_@	c #FDB26A",
":@	c #DD8145",
"<@	c #B73601",
"[@	c #B03100",
"}@	c #D68317",
"|@	c #F0B11C",
"1@	c #FAA658",
"2@	c #EA7A09",
"3@	c #FED22F",
"4@	c #F78517",
"5@	c #F82E09",
"6@	c #E62D0B",
"7@	c #981003",
"8@	c #8A0C01",
"9@	c #B85D35",
"0@	c #D9874D",
"a@	c #F3A461",
"b@	c #FFB56C",
"c@	c #FFB469",
"d@	c #EA9553",
"e@	c #C35420",
"f@	c #B63400",
"g@	c #A82F00",
"h@	c #B23300",
"i@	c #D88915",
"j@	c #FFD022",
"k@	c #FE9A4E",
"l@	c #E79F24",
"m@	c #FFDD2E",
"n@	c #F9B124",
"o@	c #F86C25",
"p@	c #F07026",
"q@	c #ED6C25",
"r@	c #DF6221",
"s@	c #AE360A",
"t@	c #A02000",
"u@	c #971600",
"v@	c #AC3A17",
"w@	c #BD4917",
"x@	c #B33400",
"y@	c #B03200",
"z@	c #B83401",
"A@	c #AE3201",
"B@	c #D58313",
"C@	c #FFCE21",
"D@	c #FD9345",
"E@	c #FCBD41",
"F@	c #FFD734",
"G@	c #FECE32",
"H@	c #FEB472",
"I@	c #FF9D55",
"J@	c #FFA358",
"K@	c #FFA256",
"L@	c #E5671E",
"M@	c #B83600",
"N@	c #BB3600",
"O@	c #B93600",
"P@	c #B03201",
"Q@	c #B43300",
"R@	c #B73500",
"S@	c #CA6B0B",
"T@	c #FFCA21",
"U@	c #FEA154",
"V@	c #FF9B49",
"W@	c #FEB43E",
"X@	c #FFCB3F",
"Y@	c #FFD183",
"Z@	c #FFC27D",
"`@	c #FDAA61",
" #	c #FD752C",
".#	c #F05300",
"+#	c #BA3601",
"@#	c #BB3701",
"##	c #BB3700",
"$#	c #B13300",
"%#	c #B73700",
"&#	c #B53500",
"*#	c #A93100",
"=#	c #B93700",
"-#	c #BA3700",
";#	c #C04A03",
">#	c #F8B71F",
"  . + @ # $ % & * = - ; > , ' ) ! ~ { ] ",
"^ / ( _ : < [ < [ } | 1 2 3 4 5 6 7 8 9 ",
"0 a < b c d e f g h i j k l m n o p q r ",
"s t u v w x y z A B C D E F G H I J K L ",
"M N O P Q R S T U V W X Y Z `  ...+.@.#.",
"$.%.&.*.=.-.;.>.,.'.).!.~.{.].^./.(._.:.",
"<.[.}.|.1.2.3.4.5.6.7.8.9.0.a.b.c.d.e.f.",
"g.h.i.j.k.l.m.n.o.p.q.r.s.t.u.v.w.x.y.z.",
"A.B.C.D.E.F.G.H.I.J.K.L.L.M.N.O.P.Q.R.S.",
"T.U.V.W.X.Y.Z.`. +L.L..+L.K.++@+#+$+%+&+",
"*+=+-+;+>+,+'+'+)+!+~+{+]+^+/+(+_+:+<+[+",
"}+|+1+2+3+4+4+5+3+6+6+7+8+9+0+a+b+c+d+e+",
"f+g+h+i+j+k+l+m+n+o+p+q+r+s+t+u+v+w+x+y+",
"z+A+B+C+D+E+t+F+G+H+I+J+K+L+M+N+O+P+Q+R+",
"S+T+U+V+W+X+Y+M+Z+`+ @.@+@@@#@$@%@&@*@=@",
"-@;@>@,@'@)@!@~@Z+{@]@^@/@(@_@:@<@[@}@|@",
"1@2@3@4@5@6@7@8@9@0@a@b@c@d@e@f@g@h@i@j@",
"k@l@m@n@o@p@q@r@s@t@u@v@w@x@y@z@A@h@B@C@",
"D@E@F@G@H@I@J@K@L@M@N@O@P@Q@h@f@R@O@S@T@",
"U@V@W@X@Y@Z@`@ #.#+#@###$#%#&#*#=#-#;#>#"};
