/* XPM */
static char * sonico_xpm[] = {
"20 20 351 2",
"  	c #505050",
". 	c #6D6D6D",
"+ 	c #9B9B9B",
"@ 	c #A5A5A5",
"# 	c #A7A9A8",
"$ 	c #A5A7A6",
"% 	c #A2A3A2",
"& 	c #919191",
"* 	c #636363",
"= 	c #676767",
"- 	c #A4A4A4",
"; 	c #D1D1D1",
"> 	c #BFBFBF",
", 	c #B1B1B1",
"' 	c #A6A8A7",
") 	c #949595",
"! 	c #717171",
"~ 	c #868686",
"{ 	c #A7A7A7",
"] 	c #A1A1A1",
"^ 	c #5C5C5C",
"/ 	c #575757",
"( 	c #C5C5C5",
"_ 	c #AAAAAA",
": 	c #646464",
"< 	c #7F7F7F",
"[ 	c #807E7F",
"} 	c #AFADAD",
"| 	c #C3C1C2",
"1 	c #ADADAE",
"2 	c #686869",
"3 	c #7D7D7D",
"4 	c #B4B4B4",
"5 	c #7C7C7C",
"6 	c #BBBBBB",
"7 	c #B9BEBC",
"8 	c #676868",
"9 	c #646565",
"0 	c #595A59",
"a 	c #3F4040",
"b 	c #3E4040",
"c 	c #3A3E3D",
"d 	c #474B4A",
"e 	c #89898A",
"f 	c #BEBEC0",
"g 	c #8D8D8E",
"h 	c #626262",
"i 	c #BDBDBD",
"j 	c #616161",
"k 	c #9E9E9E",
"l 	c #D0D0D0",
"m 	c #A7A9A9",
"n 	c #8D8689",
"o 	c #C2B6BA",
"p 	c #D3C6CA",
"q 	c #C7BBBF",
"r 	c #BFB2B6",
"s 	c #90888B",
"t 	c #4C4B4C",
"u 	c #3F3F41",
"v 	c #4B4B4D",
"w 	c #9E9E9F",
"x 	c #929292",
"y 	c #B8B8B8",
"z 	c #535353",
"A 	c #AFB1B0",
"B 	c #C4C5C5",
"C 	c #AFB2B1",
"D 	c #C9C2C2",
"E 	c #F8E4E9",
"F 	c #F3E4E7",
"G 	c #E7D8DB",
"H 	c #EDDEE1",
"I 	c #F7E4E8",
"J 	c #F8E6EA",
"K 	c #DCCDD0",
"L 	c #837D7F",
"M 	c #3F4245",
"N 	c #3F4044",
"O 	c #ABABAB",
"P 	c #848382",
"Q 	c #919393",
"R 	c #979898",
"S 	c #BEBEBE",
"T 	c #D8DBDA",
"U 	c #BDB7B9",
"V 	c #FAEDF0",
"W 	c #F3E2E5",
"X 	c #F0DEE2",
"Y 	c #F5E2E6",
"Z 	c #F8E5E9",
"` 	c #EFDDE1",
" .	c #F2E1E4",
"..	c #8E898B",
"+.	c #3D4143",
"@.	c #5F5F60",
"#.	c #CCCAC8",
"$.	c #6A6969",
"%.	c #C0C0C0",
"&.	c #D7DAD8",
"*.	c #EAD8DE",
"=.	c #F6E1E6",
"-.	c #F2DFE3",
";.	c #F0DEE3",
">.	c #EBD7DC",
",.	c #F8E3E8",
"'.	c #F0DDE1",
").	c #F7E5E8",
"!.	c #F8E5E7",
"~.	c #ECDDE0",
"{.	c #585456",
"].	c #3D3D3F",
"^.	c #B8B5B5",
"/.	c #B7ACAF",
"(.	c #AFAFAE",
"_.	c #858081",
":.	c #C6B7BA",
"<.	c #E6CAD1",
"[.	c #F9D9E1",
"}.	c #DBBFC4",
"|.	c #EED9DF",
"1.	c #EFDCE0",
"2.	c #FAE3E8",
"3.	c #F9E3E8",
"4.	c #EED8DE",
"5.	c #F6E0E5",
"6.	c #F8E2E8",
"7.	c #B9ABAF",
"8.	c #3E4041",
"9.	c #A5A6A7",
"0.	c #BEB0B3",
"a.	c #C0B5B7",
"b.	c #848484",
"c.	c #C6C1C2",
"d.	c #D1B7BE",
"e.	c #E4BDC8",
"f.	c #D5ACB5",
"g.	c #BB9E9F",
"h.	c #F2D3DB",
"i.	c #F8D8E1",
"j.	c #F8DAE2",
"k.	c #FBDAE3",
"l.	c #E0C5CD",
"m.	c #F8E0E6",
"n.	c #FBE1E8",
"o.	c #F5DBE1",
"p.	c #E8CFD6",
"q.	c #4E4547",
"r.	c #747674",
"s.	c #D2D5D2",
"t.	c #D4D5D3",
"u.	c #8E8B8A",
"v.	c #D7D8D7",
"w.	c #DDE0E0",
"x.	c #D2B7BF",
"y.	c #D5A7B1",
"z.	c #D5BAB9",
"A.	c #D2BCB9",
"B.	c #E5B7C3",
"C.	c #F8CFDA",
"D.	c #F6D1DE",
"E.	c #DFB9C3",
"F.	c #D5B6BD",
"G.	c #F4D7E0",
"H.	c #F6D9E0",
"I.	c #EBCDD5",
"J.	c #F4D4DD",
"K.	c #978588",
"L.	c #CACFCA",
"M.	c #D3D0D1",
"N.	c #DCDBDB",
"O.	c #D6B7C0",
"P.	c #C2BFC4",
"Q.	c #BBC3C6",
"R.	c #B68E98",
"S.	c #9A898A",
"T.	c #4D3A3A",
"U.	c #B2999B",
"V.	c #DCACB7",
"W.	c #F5CBD5",
"X.	c #F3C4D1",
"Y.	c #B68A91",
"Z.	c #C6A7AC",
"`.	c #E9C6CE",
" +	c #F1CDD7",
".+	c #DCB9C3",
"++	c #F0CBD5",
"@+	c #A69F9F",
"#+	c #D6DBD7",
"$+	c #DEE5E1",
"%+	c #DEDADA",
"&+	c #E8C9C9",
"*+	c #B997A1",
"=+	c #9F919C",
"-+	c #D7B2B7",
";+	c #D1C2C3",
">+	c #9B7681",
",+	c #855B66",
"'+	c #D09DA8",
")+	c #E2B3BE",
"!+	c #C89FA4",
"~+	c #D1BCB8",
"{+	c #D3BBBA",
"]+	c #D4ADB6",
"^+	c #ECC2CF",
"/+	c #DDB3BF",
"(+	c #DFB5C1",
"_+	c #B5B8B5",
":+	c #DFE0DD",
"<+	c #E2DEDB",
"[+	c #D8AEB8",
"}+	c #CEA8A0",
"|+	c #C1A1A9",
"1+	c #D4B5BE",
"2+	c #D7AAB6",
"3+	c #DFBFBC",
"4+	c #BF999B",
"5+	c #D2B2B3",
"6+	c #D4AFB4",
"7+	c #D0A5AB",
"8+	c #D5C6C5",
"9+	c #736869",
"0+	c #9B8D8C",
"a+	c #DFB7BE",
"b+	c #DEB1BB",
"c+	c #EABDC9",
"d+	c #C7A3AC",
"e+	c #B6BBBB",
"f+	c #D5CECF",
"g+	c #DAC3C7",
"h+	c #B29AAB",
"i+	c #D3BAB2",
"j+	c #E0DDE3",
"k+	c #DABAC5",
"l+	c #BF8C96",
"m+	c #CEA6A8",
"n+	c #F8CFCC",
"o+	c #F1D8D1",
"p+	c #EAD2CE",
"q+	c #D9BABA",
"r+	c #F2E5E0",
"s+	c #A48892",
"t+	c #492030",
"u+	c #B79798",
"v+	c #D09CA7",
"w+	c #E2B3C0",
"x+	c #DAC7CD",
"y+	c #C3CBCD",
"z+	c #A68E97",
"A+	c #D7A3B0",
"B+	c #DDACAE",
"C+	c #BBACA7",
"D+	c #DAC0C9",
"E+	c #D49AA6",
"F+	c #A27173",
"G+	c #F4E1D3",
"H+	c #F9E3DC",
"I+	c #F9E4DE",
"J+	c #FCE7E1",
"K+	c #E0C6C0",
"L+	c #F6D2D1",
"M+	c #C39597",
"N+	c #B29399",
"O+	c #BEA8A8",
"P+	c #CDA0AA",
"Q+	c #CAA3AA",
"R+	c #DCD9D6",
"S+	c #E7E6E5",
"T+	c #CCCCC9",
"U+	c #B98692",
"V+	c #D39FAE",
"W+	c #DAB5BA",
"X+	c #DBAFBD",
"Y+	c #A69DA4",
"Z+	c #9CBCB2",
"`+	c #DCD1CD",
" @	c #F9E8DE",
".@	c #F5E3D9",
"+@	c #FBE7DE",
"@@	c #F9E3DB",
"#@	c #FAD2CF",
"$@	c #F2C8C6",
"%@	c #E0BDBF",
"&@	c #D6AEB6",
"*@	c #E3B7C0",
"=@	c #D6C8CE",
"-@	c #B0B5BD",
";@	c #E3E7E7",
">@	c #CED0CB",
",@	c #C7B9BA",
"'@	c #B67C8D",
")@	c #D5ADB8",
"!@	c #C0C4C7",
"~@	c #9DB4A3",
"{@	c #B2A793",
"]@	c #E5D1CB",
"^@	c #F5E1D9",
"/@	c #BF9997",
"(@	c #D2B1AE",
"_@	c #FAE8DF",
":@	c #FBE2DB",
"<@	c #EBCDC7",
"[@	c #CFA4A8",
"}@	c #E0B3BD",
"|@	c #BDA2AD",
"1@	c #ABB3BE",
"2@	c #A2AAB8",
"3@	c #999FA4",
"4@	c #CFD3D5",
"5@	c #BBBBBF",
"6@	c #C0BCC2",
"7@	c #E8E1E2",
"8@	c #E6E7ED",
"9@	c #C1D0CB",
"0@	c #D1C2AD",
"a@	c #F3DCCE",
"b@	c #D5B7AB",
"c@	c #F9E5DC",
"d@	c #F0DBD4",
"e@	c #FAE8E1",
"f@	c #F0DCD2",
"g@	c #D4B9B5",
"h@	c #DCB3B7",
"i@	c #C79EA3",
"j@	c #96858D",
"k@	c #A4A1B1",
"l@	c #AC949F",
"m@	c #99828C",
"n@	c #A58995",
"o@	c #B38E9A",
"p@	c #DABCC4",
"q@	c #EBEBED",
"r@	c #DCDBD7",
"s@	c #A7A681",
"t@	c #F8E2DB",
"u@	c #DFC1B1",
"v@	c #DDAD9B",
"w@	c #D8B6A7",
"x@	c #DCB9A8",
"y@	c #CDA894",
"z@	c #B68F7F",
"A@	c #D3AAB0",
"B@	c #C2A0AC",
"C@	c #A4A1B4",
"D@	c #ADB8CE",
"E@	c #C0CEDF",
"F@	c #E6EBF4",
"G@	c #DADFE5",
"H@	c #C2BAC4",
"I@	c #BBA4B2",
"J@	c #CCA1AF",
"              . + @ # $ % & *           ",
"          = - ; > , ' ) ! ~ { ] ^       ",
"      / - ( _ : . < [ } | 1 2 3 4 5     ",
"      ~ 6 7 8 9 0 a b c d e f g h i 5   ",
"    j k l m n o p q r s t u v w x j y z ",
"    A B C D E F G H I J K L M N O P Q R ",
"    S T U V E W X Y Z Y `  ...+.@.#.$.%.",
"    y &.*.=.-.;.>.,.Z '.).!.~.{.].^./.(.",
"    _.:.<.[.}.|.1.2.3.4.5.6.6.7.8.9.0.a.",
"  b.c.d.e.f.g.h.i.j.k.l.m.n.o.p.q.r.s.t.",
"u.v.w.x.y.z.A.B.C.D.E.F.G.H.I.J.K.L.M.N.",
"O.P.Q.R.S.T.U.V.W.X.Y.Z.`. +.+++@+#+$+%+",
"&+*+=+-+;+>+,+'+)+!+~+{+]+^+/+(+_+:+<+[+",
"}+|+1+2+3+4+5+6+7+8+9+0+a+b+c+d+e+f+g+h+",
"i+j+k+l+m+n+o+p+q+r+s+t+u+v+w+x+y+z+A+B+",
"C+D+E+F+G+H+I+J+K+L+M+N+O+P+Q+R+S+T+U+V+",
"W+X+Y+Z+`+ @.@+@@@#@$@%@&@*@=@-@;@>@,@'@",
")@!@~@{@]@^@/@(@_@:@<@[@}@|@1@2@3@4@5@6@",
"7@8@9@0@a@b@c@d@e@f@g@h@i@j@k@l@m@n@o@p@",
"q@r@s@t@u@v@w@x@y@z@A@B@C@D@E@F@G@H@I@J@"};
