/* XPM */
static char * vert_xpm[] = {
"20 20 302 2",
"  	c None",
". 	c #9FD9BC",
"+ 	c #B0E6C5",
"@ 	c #7DC3AE",
"# 	c #8DCFB4",
"$ 	c #9AD5B7",
"% 	c #AFE5C1",
"& 	c #C3F1C9",
"* 	c #85CDB5",
"= 	c #7AC4B0",
"- 	c #5FA59B",
"; 	c #68AC9F",
"> 	c #80C4AE",
", 	c #7DBBA8",
"' 	c #8DC6AE",
") 	c #A5DFBD",
"! 	c #ADEAC2",
"~ 	c #A1DEBC",
"{ 	c #A8E2BD",
"] 	c #9BDCC0",
"^ 	c #68ABA0",
"/ 	c #559C97",
"( 	c #61A59A",
"_ 	c #62A89E",
": 	c #488C89",
"< 	c #529895",
"[ 	c #44898A",
"} 	c #87CEB5",
"| 	c #7AB7A7",
"1 	c #4C9692",
"2 	c #7BBFA9",
"3 	c #ACE9C1",
"4 	c #ACE6BF",
"5 	c #A1DBB6",
"6 	c #ACE4BA",
"7 	c #BDEACF",
"8 	c #8CD7BB",
"9 	c #4C928F",
"0 	c #4E9B97",
"a 	c #61ACA2",
"b 	c #64AFA5",
"c 	c #5AA69F",
"d 	c #5AA69C",
"e 	c #489191",
"f 	c #76B9A5",
"g 	c #B0E7C5",
"h 	c #AFD5C1",
"i 	c #509A94",
"j 	c #72BAA5",
"k 	c #B3EBC2",
"l 	c #C1F4C6",
"m 	c #B6E7BD",
"n 	c #E5F8E7",
"o 	c #C5EDD0",
"p 	c #91D2B7",
"q 	c #61ACA0",
"r 	c #80CBB5",
"s 	c #7CC7B2",
"t 	c #89D5BC",
"u 	c #81CDB7",
"v 	c #77C4B1",
"w 	c #75C0AD",
"x 	c #70B29F",
"y 	c #BDEDC9",
"z 	c #DDF9DA",
"A 	c #A2C9BB",
"B 	c #509B98",
"C 	c #74B8A4",
"D 	c #BEF0C5",
"E 	c #CAF6C8",
"F 	c #E1F8E2",
"G 	c #C8F1CF",
"H 	c #84C6AE",
"I 	c #A2D9BD",
"J 	c #A2DFBF",
"K 	c #97D6B9",
"L 	c #BEEECC",
"M 	c #AAE5C3",
"N 	c #8DD1B6",
"O 	c #B7EACA",
"P 	c #7FBBA7",
"Q 	c #A9E5C1",
"R 	c #C2EEC9",
"S 	c #CCECCF",
"T 	c #59A69F",
"U 	c #57A39D",
"V 	c #90CAAF",
"W 	c #C1EFC5",
"X 	c #CBEFD2",
"Y 	c #B6EAC7",
"Z 	c #ABE6C3",
"` 	c #7DC0A9",
" .	c #ABE7C5",
"..	c #93D4B4",
"+.	c #A9E3C1",
"@.	c #BBEECB",
"#.	c #AFEAC4",
"$.	c #96D7B7",
"%.	c #9BDDBD",
"&.	c #8BC9B0",
"*.	c #A4E1C0",
"=.	c #A5E1BF",
"-.	c #B7E9C5",
";.	c #73B0A4",
">.	c #64B0A5",
",.	c #61ADA1",
"'.	c #AFE2BE",
").	c #AFE3C3",
"!.	c #A3E3C0",
"~.	c #A7E5C2",
"{.	c #7EC1A9",
"].	c #A5E5C0",
"^.	c #8DC9AA",
"/.	c #ACE9C4",
"(.	c #B7EFC6",
"_.	c #B6EFC6",
":.	c #9ED7B5",
"<.	c #A1DDBA",
"[.	c #A4E0BD",
"}.	c #99D5B5",
"|.	c #A2DFBE",
"1.	c #ACE7C1",
"2.	c #80BDAA",
"3.	c #5EA9A0",
"4.	c #7FC6B0",
"5.	c #8ECCB2",
"6.	c #A0DFBE",
"7.	c #A5E5C1",
"8.	c #ADE3C0",
"9.	c #8BCBAE",
"0.	c #B2EAC2",
"a.	c #98C7A9",
"b.	c #B6EEC4",
"c.	c #C5F5C8",
"d.	c #BCF0C5",
"e.	c #A8DBB8",
"f.	c #ABD9B5",
"g.	c #B3E9C1",
"h.	c #9ACEB0",
"i.	c #A7E4C0",
"j.	c #A5E2BE",
"k.	c #90CDB2",
"l.	c #5FADA2",
"m.	c #76BBAA",
"n.	c #9BD8B8",
"o.	c #A9E5C2",
"p.	c #B2E9C4",
"q.	c #A9D9B8",
"r.	c #99D6B6",
"s.	c #B1E6BF",
"t.	c #B2CDAE",
"u.	c #B7EDC4",
"v.	c #C9F7C9",
"w.	c #B8EBC1",
"x.	c #ABD6B7",
"y.	c #BFDFBB",
"z.	c #ADE5BF",
"A.	c #93C6AB",
"B.	c #B5EAC4",
"C.	c #AAE5C1",
"D.	c #A7E1BF",
"E.	c #62AEA2",
"F.	c #66B4A6",
"G.	c #94D2B6",
"H.	c #A4DEBE",
"I.	c #B2E8C4",
"J.	c #C7F2CA",
"K.	c #98CCB0",
"L.	c #8BCBAF",
"M.	c #B5DCBA",
"N.	c #CCD6B7",
"O.	c #B1E0BD",
"P.	c #C4F5C8",
"Q.	c #B0E0BB",
"R.	c #B9CEB3",
"S.	c #C0DAB9",
"T.	c #94D4B6",
"U.	c #7DB19C",
"V.	c #C2EFC7",
"W.	c #BDEEC7",
"X.	c #ABE5C1",
"Y.	c #86C9B1",
"Z.	c #61AFA3",
"`.	c #70BDAC",
" +	c #B4E6C3",
".+	c #CAF3CA",
"++	c #87C6AA",
"@+	c #93AC98",
"#+	c #A1AF9E",
"$+	c #AAA397",
"%+	c #D5DFC5",
"&+	c #BFEAC6",
"*+	c #C5DEC2",
"=+	c #A4AB9C",
"-+	c #9B9998",
";+	c #87A999",
">+	c #7FAD9A",
",+	c #CFF6CD",
"'+	c #BBE9C4",
")+	c #B6E9C4",
"!+	c #A5DDBC",
"~+	c #70BEAD",
"{+	c #65B3A6",
"]+	c #B5E5C2",
"^+	c #CCF4CB",
"/+	c #C5EFC8",
"(+	c #82C5AA",
"_+	c #A2AEA1",
":+	c #BEA2CB",
"<+	c #CCB0D3",
"[+	c #EEE8D7",
"}+	c #EBF1D9",
"|+	c #F2F4DD",
"1+	c #DCCDD5",
"2+	c #D7BADC",
"3+	c #B7A5B7",
"4+	c #7AB09A",
"5+	c #C5EEC7",
"6+	c #B6E6C1",
"7+	c #CBF4CB",
"8+	c #B2E4BF",
"9+	c #88C5B2",
"0+	c #75C1AE",
"a+	c #C3EFC8",
"b+	c #CBF5CC",
"c+	c #B7E8C3",
"d+	c #A6C4AF",
"e+	c #D4D6BD",
"f+	c #FBE5CE",
"g+	c #FEEFD5",
"h+	c #FDF8E3",
"i+	c #FCF0D8",
"j+	c #FEF8E2",
"k+	c #FDF4DB",
"l+	c #FDEBD1",
"m+	c #F8E0CA",
"n+	c #A2BAA3",
"o+	c #B7E0BD",
"p+	c #B1E0BE",
"q+	c #CDF6CC",
"r+	c #A8DDBB",
"s+	c #BFE9C6",
"t+	c #7FC9B2",
"u+	c #C7F2C9",
"v+	c #CCF4CC",
"w+	c #A1DABC",
"x+	c #DBCCB7",
"y+	c #FDF1D8",
"z+	c #FDF6DF",
"A+	c #FDF8E2",
"B+	c #FAECD4",
"C+	c #FEF7E0",
"D+	c #FDF8E0",
"E+	c #FDF3DB",
"F+	c #EEDFC7",
"G+	c #E6DAC6",
"H+	c #B0DDBC",
"I+	c #B2E1BF",
"J+	c #C6EEC7",
"K+	c #A0DBBA",
"L+	c #B7E4C1",
"M+	c #BAEAC3",
"N+	c #CAF1C9",
"O+	c #8CCFB5",
"P+	c #F8ECD6",
"Q+	c #FEF9E3",
"R+	c #F8F2DC",
"S+	c #FAF5DF",
"T+	c #FDF7E1",
"U+	c #A9DABA",
"V+	c #ADDEBC",
"W+	c #C0EAC5",
"X+	c #9DDABC",
"Y+	c #AFDFBD",
"Z+	c #A1DCB9",
"`+	c #8BCEB4",
" @	c #F9EED8",
".@	c #FEF9E2",
"+@	c #FCF6DF",
"@@	c #A3D7B8",
"#@	c #97D1B2",
"$@	c #B7E5C0",
"%@	c #97D2B6",
"&@	c #C3ECC7",
"*@	c #94D0B3",
"=@	c #BCE7C2",
"-@	c #9DD4B5",
";@	c #D8D0CC",
">@	c #F3EAD6",
",@	c #EBE1D2",
"'@	c #C8BFC8",
")@	c #97D0B3",
"!@	c #95CFB2",
"~@	c #A0D8B5",
"{@	c #CBF1CB",
"]@	c #D3F3CF",
"^@	c #A2D8B6",
"/@	c #B5B5D3",
"(@	c #A1ABC7",
"_@	c #B7B8D7",
":@	c #BEBDDD",
"<@	c #98D1B0",
"                                        ",
"              . + @ # $ % &             ",
"              * = - ; > , ' ) ! ~ {     ",
"        ] ^ / ( _ : < [ } | 1 2 3 4 5 6 ",
"      7 8 9 0 a b c d e f g h i j k l m ",
"    n o p q r s t u v w x y z A B C D E ",
"    F G H I J K L M N O P Q R S T U V W ",
"  X Y Z `  ...+.@.#.$.%.&.*.=.-.;.>.,.'.",
"  ).!.~.{.].^./.(._.:.<.[.}.|.1.2.3.4.5.",
"  6.7.8.9.0.a.b.c.d.e.f.g.h.i.j.k.l.m.n.",
"  o.p.q.r.s.t.u.v.w.x.y.z.A.B.C.D.E.F.G.",
"H.I.J.K.L.M.N.O.P.Q.R.S.T.U.V.W.X.Y.Z.`.",
" +& .+++@+#+$+%+&+*+=+-+;+>+,+'+)+!+~+{+",
"]+^+/+(+_+:+<+[+}+|+1+2+3+4+5+6+7+8+9+0+",
"a+b+c+d+e+f+g+h+i+j+k+l+m+n+o+p+q+r+s+t+",
"u+v+w+  x+y+z+A+B+C+D+E+F+G+H+I+J+K+L+  ",
"M+N+O+    P+Q+Q+R+S+Q+T+    U+V+W+X+Y+  ",
"Z+N+`+       @.@A+A++@      @@#@$@%@  &@",
"*@=@-@        ;@>@,@'@      )@!@~@  {@]@",
"    ^@        /@(@_@:@        <@        "};
