/* XPM */
static char * yoko_xpm[] = {
"20 20 314 2",
"  	c None",
". 	c #DAA14A",
"+ 	c #D72323",
"@ 	c #D72321",
"# 	c #D56225",
"$ 	c #E9A52E",
"% 	c #D53D22",
"& 	c #D72322",
"* 	c #C92122",
"= 	c #C64445",
"- 	c #CC3738",
"; 	c #D14141",
"> 	c #CF3F3B",
", 	c #D23829",
"' 	c #CE2223",
") 	c #C84229",
"! 	c #E0972F",
"~ 	c #D42F21",
"{ 	c #D62222",
"] 	c #C82220",
"^ 	c #C32625",
"/ 	c #C24646",
"( 	c #C54948",
"_ 	c #D22E2E",
": 	c #D82323",
"< 	c #D62423",
"[ 	c #D52421",
"} 	c #D72320",
"| 	c #D62320",
"1 	c #C92220",
"2 	c #CE3A37",
"3 	c #D84C47",
"4 	c #D22323",
"5 	c #D12423",
"6 	c #CE2323",
"7 	c #B83838",
"8 	c #D02524",
"9 	c #D02222",
"0 	c #D26669",
"a 	c #DEB1B0",
"b 	c #CC917A",
"c 	c #DDBAC0",
"d 	c #C7686B",
"e 	c #D12223",
"f 	c #D53431",
"g 	c #E0504D",
"h 	c #D52525",
"i 	c #B52121",
"j 	c #A51E22",
"k 	c #CA3535",
"l 	c #D62321",
"m 	c #D62322",
"n 	c #CD2322",
"o 	c #CD5454",
"p 	c #B1A6A9",
"q 	c #D3C9C5",
"r 	c #EBDBDA",
"s 	c #DCD4DA",
"t 	c #897F88",
"u 	c #C36467",
"v 	c #CF2D2B",
"w 	c #CC2323",
"x 	c #851A20",
"y 	c #80191F",
"z 	c #BB413F",
"A 	c #D52422",
"B 	c #D72422",
"C 	c #D72421",
"D 	c #C78886",
"E 	c #181718",
"F 	c #717070",
"G 	c #EAE2E7",
"H 	c #878587",
"I 	c #211C20",
"J 	c #A56C71",
"K 	c #CB2322",
"L 	c #D22522",
"M 	c #B62224",
"N 	c #901F21",
"O 	c #831B22",
"P 	c #CF2323",
"Q 	c #D72222",
"R 	c #CE2322",
"S 	c #D02322",
"T 	c #A33C3D",
"U 	c #C9B9BA",
"V 	c #F4E9F1",
"W 	c #F4E9EE",
"X 	c #F4E8F0",
"Y 	c #C2B4BC",
"Z 	c #D02526",
"` 	c #D62221",
" .	c #D12421",
"..	c #C72424",
"+.	c #992729",
"@.	c #7F1B20",
"#.	c #CB3C39",
"$.	c #E55751",
"%.	c #D42320",
"&.	c #AA1F20",
"*.	c #D63B37",
"=.	c #D73430",
"-.	c #AE2F2A",
";.	c #BC8B6B",
">.	c #EED6BD",
",.	c #EFD2B8",
"'.	c #E7D0BB",
").	c #A77E74",
"!.	c #C52323",
"~.	c #C52224",
"{.	c #B92324",
"].	c #811A20",
"^.	c #732428",
"/.	c #CF4947",
"(.	c #F7796F",
"_.	c #F97A71",
":.	c #D64440",
"<.	c #CC5655",
"[.	c #D83935",
"}.	c #CB4838",
"|.	c #E8B789",
"1.	c #FBD09B",
"2.	c #EDC694",
"3.	c #F7CE9A",
"4.	c #F9D09C",
"5.	c #C76A55",
"6.	c #C02928",
"7.	c #CB2323",
"8.	c #911B1E",
"9.	c #801B1E",
"0.	c #EF847C",
"a.	c #FE8077",
"b.	c #F97B74",
"c.	c #DF504C",
"d.	c #B82021",
"e.	c #D6231F",
"f.	c #CA2724",
"g.	c #E4B88D",
"h.	c #E2B78D",
"i.	c #F9CF9C",
"j.	c #FDCF9A",
"k.	c #FCCF9A",
"l.	c #D28C6C",
"m.	c #CF775F",
"n.	c #C32523",
"o.	c #C49677",
"p.	c #976051",
"q.	c #FD8177",
"r.	c #FB7F76",
"s.	c #DB433D",
"t.	c #D72220",
"u.	c #C12324",
"v.	c #D82221",
"w.	c #D32220",
"x.	c #CE8A71",
"y.	c #FBCF9A",
"z.	c #F7CE9C",
"A.	c #D7B68B",
"B.	c #E7C494",
"C.	c #D19673",
"D.	c #E29B79",
"E.	c #BC2222",
"F.	c #C1674F",
"G.	c #D4AE87",
"H.	c #E65D58",
"I.	c #D02120",
"J.	c #C82C27",
"K.	c #CF2321",
"L.	c #C6624F",
"M.	c #C69071",
"N.	c #ACA79F",
"O.	c #AFADAD",
"P.	c #86725D",
"Q.	c #EFC495",
"R.	c #E4A07C",
"S.	c #BD2322",
"T.	c #CB4134",
"U.	c #D8B491",
"V.	c #B396A2",
"W.	c #C5ACB9",
"X.	c #F0716B",
"Y.	c #D52524",
"Z.	c #C82021",
"`.	c #DB8F70",
" +	c #D49977",
".+	c #CE382F",
"++	c #D15644",
"@+	c #DFBB92",
"#+	c #EEEBE5",
"$+	c #867E70",
"%+	c #C0A76F",
"&+	c #FCCE9A",
"*+	c #E5A47E",
"=+	c #C52422",
"-+	c #D22422",
";+	c #C9A7A2",
">+	c #F3D8E5",
",+	c #F9DCE9",
"'+	c #B85252",
")+	c #D52221",
"!+	c #C52123",
"~+	c #AF2123",
"{+	c #DFA381",
"]+	c #C49870",
"^+	c #D8B18E",
"/+	c #DA9D7C",
"(+	c #CE4F3F",
"_+	c #D89370",
":+	c #F8D7AD",
"<+	c #EEDCC5",
"[+	c #ECC692",
"}+	c #FDD09A",
"|+	c #E4A680",
"1+	c #CC2221",
"2+	c #E0ACB4",
"3+	c #F8DCE8",
"4+	c #C83939",
"5+	c #C64443",
"6+	c #8D1B1E",
"7+	c #CC9A77",
"8+	c #A8715C",
"9+	c #B4B3B1",
"0+	c #B5A18C",
"a+	c #F8CD99",
"b+	c #E6B487",
"c+	c #F3C795",
"d+	c #FCCF98",
"e+	c #FBD09A",
"f+	c #E0A07A",
"g+	c #D32322",
"h+	c #D82421",
"i+	c #D6898A",
"j+	c #B34946",
"k+	c #9D655E",
"l+	c #CE9974",
"m+	c #843D39",
"n+	c #AF8D79",
"o+	c #D0BFA6",
"p+	c #EBC89A",
"q+	c #FCCE9B",
"r+	c #FCCE99",
"s+	c #CE916F",
"t+	c #D5231F",
"u+	c #D72420",
"v+	c #CE4544",
"w+	c #F8DCE9",
"x+	c #E8C89E",
"y+	c #A7927E",
"z+	c #73534D",
"A+	c #7A3D39",
"B+	c #D5B188",
"C+	c #F5CB99",
"D+	c #FDCF9B",
"E+	c #FACE9A",
"F+	c #FBCF99",
"G+	c #F4CC9E",
"H+	c #CDA2A3",
"I+	c #D62421",
"J+	c #D32424",
"K+	c #EECCD8",
"L+	c #D2A479",
"M+	c #DDAE82",
"N+	c #D1A279",
"O+	c #896252",
"P+	c #323040",
"Q+	c #83484A",
"R+	c #A56E5A",
"S+	c #F8CF9B",
"T+	c #EFC997",
"U+	c #F9CD99",
"V+	c #F7CD9C",
"W+	c #C7A29F",
"X+	c #E3B3BB",
"Y+	c #D6241F",
"Z+	c #D92C2B",
"`+	c #D72523",
" @	c #E4C0C5",
".@	c #F5DCE5",
"+@	c #A67457",
"@@	c #BC805D",
"#@	c #B67D5A",
"$@	c #5B4342",
"%@	c #A67564",
"&@	c #812C2B",
"*@	c #B18971",
"=@	c #EEC99C",
"-@	c #FACF9E",
";@	c #FACF9B",
">@	c #EBCDBF",
",@	c #996678",
"'@	c #D18489",
")@	c #DB4742",
"!@	c #D93230",
"~@	c #D42422",
"{@	c #EABC92",
"]@	c #F1CCA2",
"^@	c #281C2A",
"/@	c #B37C5F",
"(@	c #956753",
"_@	c #201A32",
":@	c #F2C99B",
"<@	c #F2C697",
"[@	c #A06353",
"}@	c #915A60",
"|@	c #B497A5",
"1@	c #A98680",
"2@	c #E6CBBF",
"3@	c #F7DCE9",
"4@	c #CDAAB9",
"5@	c #D45C5B",
"6@	c #D83635",
"7@	c #D82321",
"8@	c #F2C998",
"9@	c #F9E5C6",
"                        . + @ # $ % & * ",
"                = - ; > , ' ) ! ~ { ] ^ ",
"          / ( _ : < [ } | ' 1 2 3 4 5 6 ",
"          7 8 9 0 a b c d e f g h : i j ",
"      k l m n o p q r s t u v | } w x y ",
"    z A B & C D E F G H I J K l L M N O ",
"    P Q R S m T U V W X Y Z ` @  ...+.@.",
"  #.$.%.&.*.=.-.;.>.,.'.).!.~...{.].  ^.",
"/.(._.:.<.[.@ }.|.1.2.3.4.5.6.7.8.9.    ",
"0.a.b.c.d.e.l f.g.h.i.j.k.l.m.n.o.p.    ",
"q.r.s.t.u.v.& w.x.y.z.A.B.C.D.E.F.G.    ",
"a.H.I.e.J.K.l + L.M.N.O.P.Q.R.S.T.U.V.W.",
"X.Y.Z.4 `. +.+@ ++@+#+$+%+&+*+=+-+;+>+,+",
"'+)+!+~+{+]+^+/+(+_+:+<+[+}+|+1+} 2+3+3+",
"  4+5+6+7+8+9+0+a+b+c+d+k.e+f+g+h+i+,+3+",
"    j+k+l+m+n+o+p+q+&+&+&+r+s+t+u+v+w+3+",
"x+    y+z+  A+B+C+D+&+E+F+G+H+I+u+J+K+3+",
"L+M+N+O+P+  Q+R+S+&+T+U+V+W+X+Y+Z+`+ @.@",
"+@@@#@$@    %@&@*@=@-@;@>@,@'@)@!@~@{@]@",
"^@/@(@_@  :@<@[@}@|@1@2@3@4@5@6@7@-+8@9@"};
